<?xml version="1.0" standalone="no"?>
<!DOCTYPE svg PUBLIC "-//W3C//DTD SVG 20010904//EN"
 "http://www.w3.org/TR/2001/REC-SVG-20010904/DTD/svg10.dtd">
<svg version="1.0" xmlns="http://www.w3.org/2000/svg"
 width="300.000000pt" height="300.000000pt" viewBox="0 0 300.000000 300.000000"
 preserveAspectRatio="xMidYMid meet">
<metadata>
Created by potrace 1.11, written by Peter Selinger 2001-2013
</metadata>
<g transform="translate(0.000000,300.000000) scale(0.100000,-0.100000)"
fill="#000000" stroke="none">
<path d="M1477 2673 c-18 -17 -5 -42 23 -48 17 -4 27 -11 24 -17 -3 -5 -17 -7
-31 -3 -18 4 -24 2 -21 -7 6 -18 46 -22 63 -8 19 16 2 50 -25 50 -11 0 -20 5
-20 11 0 7 12 8 33 4 30 -6 31 -5 13 10 -21 16 -48 20 -59 8z"/>
<path d="M1578 2667 c-17 -40 -9 -77 17 -89 21 -9 29 -9 40 3 16 17 24 73 10
77 -5 1 -11 -7 -11 -18 -1 -11 -2 -27 -3 -36 0 -9 -8 -14 -18 -12 -13 2 -19
16 -23 48 -4 33 -7 40 -12 27z"/>
<path d="M1308 2663 c-3 -4 -8 -21 -12 -38 l-8 -30 -16 28 c-24 39 -44 36 -36
-5 3 -18 7 -38 8 -45 5 -30 18 -25 14 5 l-5 33 23 -28 c13 -15 24 -26 24 -23
1 3 3 13 5 23 5 28 15 33 15 9 0 -12 5 -22 11 -22 7 0 8 14 4 43 -7 43 -19 65
-27 50z"/>
<path d="M1676 2620 c-3 -23 -4 -45 -1 -51 5 -8 64 -14 66 -6 6 26 8 87 2 88
-4 0 -20 3 -34 5 -24 4 -27 1 -33 -36z m54 10 c0 -5 -7 -10 -15 -10 -8 0 -15
5 -15 10 0 6 7 10 15 10 8 0 15 -4 15 -10z m0 -39 c0 -11 -26 -22 -34 -14 -12
12 -5 23 14 23 11 0 20 -4 20 -9z"/>
<path d="M1386 2641 c-7 -11 18 -33 27 -24 4 3 7 12 7 20 0 15 -26 18 -34 4z"/>
<path d="M1182 2615 c3 -16 7 -36 9 -44 2 -8 -4 -17 -14 -19 -12 -2 -22 7 -34
35 -11 26 -18 33 -20 21 -6 -25 25 -78 45 -78 34 0 45 16 39 56 -4 20 -11 42
-18 48 -8 8 -10 3 -7 -19z"/>
<path d="M1786 2593 c3 -27 9 -51 13 -56 4 -4 22 13 40 38 33 47 27 64 -7 20
-23 -30 -29 -31 -29 -7 0 39 -3 52 -13 52 -7 0 -8 -18 -4 -47z"/>
<path d="M1875 2564 c-9 -25 -16 -46 -14 -48 8 -4 60 -26 64 -26 15 0 1 19
-21 28 -14 7 -22 17 -19 22 4 7 13 7 25 0 11 -6 21 -6 25 -1 3 5 -4 12 -15 16
-33 10 -24 27 11 20 39 -9 32 9 -10 23 -28 10 -30 9 -46 -34z"/>
<path d="M1070 2587 c0 -23 28 -77 40 -77 5 0 2 17 -6 38 -19 46 -34 63 -34
39z"/>
<path d="M978 2545 c-9 -19 -8 -29 6 -50 9 -14 23 -25 31 -25 19 0 59 39 50
48 -4 4 -13 -2 -21 -13 -11 -15 -18 -17 -32 -9 -25 16 -22 48 6 52 30 5 28 22
-3 22 -17 0 -29 -8 -37 -25z"/>
<path d="M1970 2521 c-11 -22 -16 -42 -11 -46 5 -3 12 4 16 15 10 30 25 24 25
-10 0 -16 4 -30 10 -30 12 0 36 37 44 70 7 24 6 24 -19 -5 -14 -16 -25 -25
-24 -20 4 27 -2 65 -11 65 -5 0 -19 -18 -30 -39z"/>
<path d="M917 2524 c-3 -3 4 -22 16 -42 26 -47 26 -46 33 -40 5 6 -32 88 -40
88 -1 0 -5 -3 -9 -6z"/>
<path d="M2071 2469 c-27 -47 -22 -63 6 -22 31 44 34 51 25 57 -5 3 -19 -13
-31 -35z"/>
<path d="M843 2478 c-29 -14 -29 -28 -1 -64 12 -16 23 -31 25 -33 1 -2 14 4
28 13 30 20 32 49 5 76 -23 23 -26 23 -57 8z m45 -20 c7 -7 12 -20 12 -30 0
-25 -32 -23 -49 3 -11 18 -11 23 1 30 17 12 22 11 36 -3z"/>
<path d="M2130 2471 c0 -5 5 -11 10 -13 6 -2 -1 -20 -15 -41 -30 -44 -16 -50
17 -7 16 22 27 29 42 24 18 -4 16 -1 -7 20 -29 27 -47 33 -47 17z"/>
<path d="M779 2412 c5 -10 17 -24 25 -31 16 -14 11 -41 -8 -41 -7 0 -23 11
-36 25 -32 34 -46 31 -20 -4 24 -35 55 -47 75 -31 22 18 18 54 -8 78 -28 27
-41 28 -28 4z"/>
<path d="M2190 2384 l-32 -37 29 -22 c33 -27 44 -24 18 5 -21 23 -13 39 10 20
23 -19 31 -3 10 20 -23 25 0 28 27 3 27 -24 22 0 -6 26 l-23 22 -33 -37z"/>
<path d="M1405 2403 c-150 -25 -319 -84 -298 -104 8 -8 54 -20 86 -22 20 -1
22 -8 5 -25 -9 -9 -4 -20 22 -47 36 -37 60 -45 60 -20 0 17 57 77 103 109 15
10 27 28 27 40 0 32 28 43 100 40 124 -3 211 -23 319 -70 64 -29 94 -18 41 15
-34 20 -170 66 -230 77 -40 7 -205 12 -235 7z"/>
<path d="M712 2313 c21 -20 41 -34 45 -30 9 9 -51 67 -69 67 -7 0 4 -17 24
-37z"/>
<path d="M2292 2290 c-25 -23 -27 -33 -12 -61 13 -24 52 -25 73 -1 21 23 22
46 1 66 -21 21 -36 20 -62 -4z m54 -15 c7 -18 -13 -45 -33 -45 -19 0 -28 27
-13 45 16 19 39 19 46 0z"/>
<path d="M600 2255 c-23 -24 -23 -25 -4 -46 33 -36 53 -43 75 -23 10 9 19 24
19 32 0 11 -5 9 -19 -7 -11 -13 -25 -20 -31 -16 -8 5 -6 12 5 25 11 12 13 20
6 25 -6 3 -14 -1 -17 -9 -3 -9 -13 -16 -20 -16 -12 0 -11 5 2 25 23 35 13 41
-16 10z"/>
<path d="M2385 2214 c-11 -9 -29 -22 -39 -30 -11 -7 -17 -17 -13 -21 4 -3 13
-1 19 5 9 9 16 8 29 -4 21 -19 53 -15 57 7 1 9 -5 25 -15 37 -17 20 -20 20
-38 6z m35 -35 c0 -5 -7 -9 -15 -9 -15 0 -20 12 -9 23 8 8 24 -1 24 -14z"/>
<path d="M537 2171 c-21 -36 -22 -47 -2 -31 11 9 20 8 44 -9 32 -23 41 -26 41
-12 0 6 -13 18 -30 28 -21 12 -28 23 -24 35 9 28 -10 21 -29 -11z"/>
<path d="M1569 2172 c-14 -9 -40 -34 -58 -54 -18 -20 -40 -40 -50 -43 -23 -7
-41 -47 -34 -73 6 -25 31 -36 48 -22 10 9 17 4 27 -17 7 -15 17 -27 23 -27 15
2 42 57 37 76 -5 21 36 81 49 72 6 -4 4 -13 -5 -23 -25 -28 -14 -56 23 -56 17
0 31 -3 31 -7 0 -5 -9 -8 -20 -8 -11 0 -20 -6 -20 -14 0 -8 -8 -16 -17 -18
-10 -2 -18 -12 -18 -23 0 -17 -7 -20 -50 -20 -41 0 -50 3 -47 17 5 31 -18 30
-29 -1 -6 -17 -16 -31 -23 -31 -6 0 -17 -9 -23 -20 -7 -11 -27 -23 -44 -28
-30 -7 -31 -9 -15 -24 9 -9 16 -21 16 -26 0 -12 -29 -24 -40 -17 -11 7 -34
-23 -35 -46 -1 -11 4 -24 12 -30 17 -15 62 -3 70 19 7 17 20 30 61 59 22 15
24 15 57 -17 19 -19 35 -40 35 -48 0 -12 3 -12 15 -2 13 11 12 17 -11 47 -14
19 -24 37 -20 40 12 12 38 -9 52 -42 8 -20 21 -38 29 -42 8 -3 15 -11 15 -19
0 -8 7 -14 15 -14 21 0 19 13 -6 29 -18 10 -19 15 -8 22 22 14 29 11 39 -16 8
-20 16 -25 44 -25 38 0 53 -12 33 -28 -23 -19 -102 -41 -112 -31 -14 14 -22
11 -45 -13 l-21 -23 -72 38 c-68 35 -115 46 -131 30 -3 -4 -16 -8 -27 -10 -24
-4 -108 -91 -110 -113 -6 -86 -6 -109 2 -136 19 -61 78 -94 125 -69 13 6 37
10 54 7 24 -3 35 -13 51 -45 12 -22 29 -48 38 -59 17 -17 22 -48 36 -208 1
-19 10 -52 19 -74 16 -37 18 -38 54 -31 45 8 84 43 124 110 16 28 39 65 50 83
17 28 19 38 9 58 -17 39 -13 60 17 91 41 43 92 110 92 122 0 6 -14 9 -32 7
-26 -3 -38 3 -68 35 -33 35 -79 143 -67 155 3 3 18 -19 35 -48 16 -29 38 -64
49 -77 l19 -23 61 31 c67 35 99 64 88 81 -3 5 -10 8 -15 5 -5 -3 -12 0 -15 6
-4 5 -13 8 -20 5 -14 -5 -59 37 -49 47 3 3 18 -3 33 -13 15 -11 51 -21 85 -24
72 -6 99 -28 122 -100 9 -28 23 -58 31 -66 13 -13 17 -12 36 11 12 14 37 47
54 72 28 41 37 47 67 47 l34 0 -4 78 c-7 155 -74 333 -168 454 -39 49 -49 56
-76 54 -17 -1 -39 3 -48 10 -13 10 -23 10 -47 0 -16 -7 -39 -12 -50 -10 -11 2
-54 -17 -96 -42 -42 -24 -80 -44 -86 -44 -6 0 -18 12 -28 26 -9 15 -12 23 -6
20 26 -16 51 -14 61 5 10 17 6 22 -34 39 -34 14 -143 51 -150 50 -1 0 -13 -8
-27 -18z m194 -363 c-4 -15 0 -22 16 -26 12 -3 20 -11 18 -17 -5 -15 -55 -20
-72 -6 -10 8 -19 8 -33 1 -15 -8 -23 -7 -31 3 -17 20 26 61 45 45 10 -8 18 -7
29 5 22 22 34 20 28 -5z"/>
<path d="M874 2128 c-93 -103 -169 -258 -194 -399 -15 -82 -15 -241 0 -269 9
-17 18 -21 38 -17 36 7 106 -32 110 -61 3 -21 7 -23 42 -26 19 -2 15 -51 -6
-83 -29 -45 -12 -103 45 -157 25 -24 36 -47 46 -96 0 -3 4 -21 8 -40 6 -30 18
-43 78 -83 87 -57 104 -60 93 -14 -11 48 -8 66 20 106 15 20 26 41 26 47 0 5
13 15 29 21 21 7 37 27 57 68 l28 57 -23 19 c-12 10 -39 23 -59 29 -21 5 -54
21 -74 35 -20 14 -41 25 -45 25 -5 0 -27 13 -49 29 -21 16 -59 32 -84 36 -25
4 -53 14 -62 22 -9 8 -22 12 -28 8 -7 -4 -14 2 -17 15 -3 12 -17 26 -30 31
-21 8 -23 12 -13 25 16 18 -1 41 -22 28 -21 -13 -56 -16 -63 -4 -3 6 -7 24 -7
42 -1 41 29 66 75 63 42 -3 57 -11 57 -31 0 -8 4 -14 9 -14 14 0 23 18 12 24
-14 9 -7 33 18 60 15 16 22 32 18 45 -3 14 -1 18 9 14 8 -3 14 0 14 7 0 14 55
70 69 70 5 0 14 -6 21 -14 6 -8 18 -12 26 -9 17 6 19 23 2 23 -6 0 -20 8 -30
17 -17 15 -22 15 -41 4 -22 -14 -22 -14 -3 8 21 24 66 29 66 7 0 -16 58 -28
67 -13 3 5 0 14 -6 20 -15 15 -14 27 4 27 8 0 15 7 15 15 0 9 -9 15 -25 15
-19 0 -28 8 -36 27 -18 47 -29 56 -50 37 -19 -17 -43 -11 -36 9 5 17 -32 47
-49 40 -9 -3 -14 -20 -14 -44 0 -26 -7 -46 -24 -64 l-24 -26 -29 28 c-16 15
-37 33 -46 38 -17 9 -16 13 10 53 16 24 35 42 46 42 14 0 16 4 9 17 -6 9 -6
21 -1 27 5 6 17 22 27 35 17 22 20 23 48 10 24 -12 29 -21 29 -49 0 -32 3 -35
33 -38 34 -3 40 6 20 27 -11 10 -10 11 5 6 9 -4 17 -4 17 0 0 13 -103 125
-115 125 -6 0 -25 -15 -41 -32z"/>
<path d="M2417 2125 c-43 -30 -47 -38 -13 -29 16 4 25 1 29 -10 8 -20 31 -20
47 -1 11 13 11 20 0 40 -16 31 -17 31 -63 0z m53 -21 c0 -16 -16 -19 -25 -4
-8 13 4 32 16 25 5 -4 9 -13 9 -21z"/>
<path d="M1270 2109 c0 -5 11 -16 25 -25 24 -16 27 -16 45 1 11 10 18 21 15
24 -9 9 -85 9 -85 0z"/>
<path d="M500 2103 c0 -13 78 -54 84 -45 3 5 -12 19 -33 30 -42 24 -51 26 -51
15z"/>
<path d="M460 2035 c-8 -16 -10 -29 -4 -35 15 -15 84 -41 84 -31 0 5 -7 11
-15 15 -24 9 -17 26 10 26 14 0 25 5 25 10 0 6 -9 10 -19 10 -10 0 -21 7 -25
15 -9 23 -41 18 -56 -10z m40 -9 c0 -8 -4 -17 -9 -21 -12 -7 -24 12 -16 25 9
15 25 12 25 -4z"/>
<path d="M2463 2043 c-39 -20 -43 -36 -7 -27 l26 7 -16 -31 c-9 -18 -12 -33
-7 -37 5 -3 12 4 16 15 5 14 12 19 24 15 28 -9 46 20 33 50 -13 29 -25 30 -69
8z m52 -21 c0 -18 -20 -15 -23 4 -3 10 1 15 10 12 7 -3 13 -10 13 -16z"/>
<path d="M1315 2010 c-5 -15 -1 -26 11 -34 16 -13 16 -26 -1 -68 -6 -15 -2
-18 23 -18 48 0 63 35 30 70 -12 12 -21 32 -22 43 -1 29 -32 34 -41 7z"/>
<path d="M845 1979 c-11 -17 1 -21 15 -4 8 9 8 15 2 15 -6 0 -14 -5 -17 -11z"/>
<path d="M422 1945 c-17 -36 -15 -44 11 -54 61 -23 64 -23 77 9 16 38 5 53
-11 16 -17 -37 -33 -33 -25 7 l6 32 -19 -22 c-26 -31 -32 -29 -24 7 7 37 0 39
-15 5z"/>
<path d="M1280 1950 c-9 -16 -8 -22 4 -26 21 -8 36 3 36 27 0 25 -26 25 -40
-1z"/>
<path d="M2503 1944 c-30 -13 -31 -15 -22 -44 6 -16 15 -30 20 -30 12 0 11 7
-1 30 -7 13 -6 19 5 23 8 4 16 -2 20 -14 9 -28 23 -23 17 6 -2 15 0 25 7 25 6
0 11 -9 11 -20 0 -11 5 -20 11 -20 7 0 9 9 5 23 -3 12 -6 25 -6 30 0 11 -31 7
-67 -9z"/>
<path d="M2562 1851 c-8 -4 -12 -19 -10 -31 1 -13 -3 -25 -9 -27 -9 -3 -13 6
-13 27 0 18 -4 29 -10 25 -15 -9 -12 -51 4 -64 22 -18 46 -2 46 31 0 18 4 27
11 22 6 -3 9 -15 6 -25 -3 -12 0 -19 9 -19 17 0 19 41 2 58 -14 14 -19 15 -36
3z"/>
<path d="M398 1842 c-27 -5 -22 -18 24 -51 41 -30 62 -34 39 -8 -14 17 -4 47
15 47 8 0 14 5 14 10 0 10 -50 11 -92 2z m42 -28 c0 -14 -3 -14 -15 -4 -8 7
-15 14 -15 16 0 2 7 4 15 4 8 0 15 -7 15 -16z"/>
<path d="M363 1753 c4 -6 23 -14 43 -17 26 -5 34 -12 32 -24 -3 -13 -13 -17
-46 -15 -45 2 -57 -11 -19 -21 45 -12 67 -7 79 19 9 21 9 29 -3 41 -18 17 -96
33 -86 17z"/>
<path d="M2540 1735 c-16 -19 2 -65 25 -65 17 0 36 39 27 54 -2 5 1 6 9 4 8
-3 13 -15 11 -28 -3 -21 -2 -22 11 -11 21 17 7 55 -21 59 -16 2 -21 -3 -24
-23 -4 -33 -24 -32 -21 1 2 28 0 29 -17 9z"/>
<path d="M1497 1709 c7 -7 15 -10 18 -7 3 3 -2 9 -12 12 -14 6 -15 5 -6 -5z"/>
<path d="M355 1634 c-16 -17 -12 -53 9 -66 19 -13 52 -9 68 10 37 42 48 91 14
63 -10 -8 -16 -9 -21 -1 -10 15 -52 12 -70 -6z m63 -12 c19 -13 3 -42 -23 -42
-27 0 -39 14 -31 35 6 16 34 19 54 7z"/>
<path d="M2561 1634 c-34 -24 -13 -73 32 -74 34 0 55 18 52 45 -1 14 -5 28 -8
32 -13 12 -56 11 -76 -3z m64 -29 c0 -13 -8 -21 -24 -23 -32 -5 -48 12 -31 33
18 22 55 15 55 -10z"/>
<path d="M860 1505 c28 -16 74 -20 65 -6 -3 6 -14 8 -25 6 -11 -2 -20 0 -20 6
0 5 -10 9 -22 9 -23 -1 -23 -1 2 -15z"/>
<path d="M305 1501 c-30 -6 -30 -7 -33 -78 l-3 -71 63 -4 c35 -1 92 -1 128 0
l65 4 -3 73 c-3 61 -6 74 -20 74 -9 0 -51 2 -92 4 -41 2 -88 2 -105 -2z m67
-25 c20 -19 11 -95 -10 -93 -10 0 -29 -3 -44 -6 -28 -7 -28 -7 -28 43 0 47 1
50 33 59 17 5 33 10 34 10 1 1 8 -5 15 -13z m126 -51 l3 -50 -46 3 -45 4 0 48
c0 53 8 60 55 50 28 -5 30 -9 33 -55z"/>
<path d="M2537 1504 c-3 -3 -19 -6 -35 -6 -29 -1 -30 -3 -34 -52 -6 -92 -5
-93 65 -97 34 -2 90 -3 125 -1 l62 4 0 68 c0 55 -3 69 -17 75 -23 8 -159 16
-166 9z m43 -75 c0 -44 -2 -49 -22 -47 -13 1 -33 -2 -45 -6 -22 -7 -23 -5 -23
42 0 46 2 51 28 60 48 16 62 5 62 -49z m108 42 c4 -1 7 -22 7 -48 0 -42 -2
-48 -20 -45 -11 2 -30 3 -42 3 -21 -1 -23 4 -23 47 0 27 3 51 6 54 3 4 19 2
35 -2 16 -5 33 -9 37 -9z"/>
<path d="M954 1475 c-18 -14 -18 -14 9 -15 15 0 27 4 27 9 0 18 -17 20 -36 6z"/>
<path d="M2192 1428 c-14 -14 -16 -38 -3 -38 15 0 30 25 22 38 -5 9 -10 9 -19
0z"/>
<path d="M396 1240 c1 -28 6 -59 9 -69 4 -15 1 -17 -19 -14 -21 4 -26 0 -32
-21 -8 -31 12 -58 57 -76 28 -12 40 -30 19 -30 -5 0 -10 -11 -10 -25 0 -28 34
-53 110 -82 50 -19 61 -29 53 -50 -3 -8 4 -28 16 -44 21 -28 21 -29 2 -29 -21
0 -33 -22 -24 -46 7 -19 44 -34 84 -34 26 0 29 -3 24 -23 -10 -39 21 -56 110
-60 55 -3 80 -8 83 -17 3 -8 16 -24 30 -36 22 -21 23 -25 8 -39 -12 -12 -13
-21 -6 -35 14 -25 39 -32 80 -20 46 13 53 13 47 -4 -3 -8 3 -22 14 -32 20 -18
22 -18 82 0 34 10 78 18 97 18 51 0 140 -14 145 -22 3 -4 -1 -23 -9 -41 -13
-31 -12 -36 4 -57 25 -30 33 -28 52 12 16 33 18 34 72 32 30 -1 57 -4 59 -6 1
-3 8 -17 15 -32 14 -35 27 -35 48 -3 13 20 14 31 5 56 -15 44 -15 45 22 47 17
2 48 6 67 11 27 6 41 3 61 -10 48 -33 110 -44 172 -30 31 7 61 19 67 27 10 11
6 17 -24 29 -20 9 -54 17 -75 18 -47 2 -46 4 25 33 50 20 60 21 83 9 38 -19
100 -24 148 -10 44 13 103 50 103 65 0 15 -83 22 -138 12 -29 -5 -52 -8 -52
-8 0 1 28 20 63 43 56 36 67 40 119 37 45 -2 68 3 107 23 43 21 91 67 91 87 0
12 -66 5 -117 -13 l-52 -17 47 52 c32 36 55 53 72 54 78 1 154 50 191 122 19
37 19 38 1 38 -11 0 -46 -13 -78 -30 -32 -16 -60 -30 -61 -30 -1 0 13 25 30
55 26 44 40 57 70 67 60 18 116 74 137 138 10 30 17 56 16 58 -9 8 -61 -23
-101 -59 l-45 -42 15 43 c14 40 13 60 -4 60 -4 0 -18 -32 -30 -72 l-24 -72
-28 56 c-33 65 -48 79 -51 46 -3 -46 4 -74 27 -114 l24 -41 -44 -76 c-25 -42
-48 -78 -53 -81 -4 -2 -8 10 -9 27 0 18 -8 50 -17 72 -15 35 -18 38 -27 22
-11 -19 -7 -116 6 -154 6 -19 -4 -34 -58 -90 l-66 -68 1 63 c2 79 -13 97 -37
46 -12 -26 -16 -52 -13 -90 l5 -53 -69 -46 c-37 -25 -70 -45 -72 -45 -2 0 0
16 5 35 6 20 9 50 7 68 l-3 32 -29 -38 c-18 -23 -30 -54 -34 -82 -4 -39 -9
-47 -36 -60 -35 -16 -145 -55 -157 -55 -4 0 3 19 16 43 12 23 26 52 30 65 18
61 -69 -13 -92 -78 -17 -48 -18 -49 -68 -56 -27 -3 -58 -8 -67 -10 -21 -3 -23
9 -7 37 8 16 7 26 -6 45 -21 33 -41 30 -54 -8 -11 -35 -10 -34 -106 -29 -13 1
-25 12 -32 31 -13 36 -35 39 -56 7 -12 -19 -13 -28 -2 -54 13 -30 13 -30 -17
-27 -76 9 -108 25 -159 79 -54 57 -81 67 -98 38 -8 -15 -12 -11 -26 24 -9 23
-25 43 -36 46 -23 6 -52 -20 -45 -40 5 -12 2 -12 -22 1 -15 8 -38 17 -52 20
-20 4 -31 20 -53 75 -29 70 -49 87 -81 69 -14 -8 -16 -3 -16 30 0 21 -5 43
-12 50 -19 19 -49 14 -55 -9 l-6 -21 -21 21 c-11 11 -30 29 -42 39 -17 16 -21
32 -23 92 -2 85 -4 90 -37 90 -13 0 -24 1 -24 3 0 1 4 18 10 37 5 19 7 43 4
52 -6 21 -44 24 -62 6 -9 -9 -12 -8 -12 5 0 9 -9 26 -19 36 -11 11 -24 29 -31
40 -18 35 -28 24 -24 -29z m1008 -742 c-6 -20 -8 -19 -24 13 -14 25 -15 37 -7
47 15 19 41 -31 31 -60z m167 -22 c-17 -38 -36 -66 -42 -64 -15 5 -14 10 18
88 23 57 30 67 41 56 11 -11 8 -25 -17 -80z m-111 30 c0 -4 -23 -60 -48 -118
-12 -28 -19 -35 -28 -27 -14 11 -11 23 26 104 11 25 27 45 35 45 8 0 15 -2 15
-4z m60 -1 c0 -20 -45 -95 -57 -95 -16 0 -11 23 14 73 11 22 43 39 43 22z m84
-138 c-6 -20 -7 -20 -20 4 -15 27 -18 62 -7 73 12 12 35 -53 27 -77z"/>
<path d="M2184 1256 c-3 -8 -11 -13 -18 -10 -7 3 -21 -4 -31 -16 -10 -11 -26
-20 -36 -20 -21 0 -43 -35 -33 -52 6 -10 9 -22 13 -67 1 -10 4 -11 15 -2 8 7
17 8 20 3 7 -11 -102 -117 -164 -159 -86 -58 -211 -111 -305 -129 -54 -10
-230 -11 -282 -1 -35 6 -43 4 -43 -8 0 -23 44 -30 180 -30 142 1 221 17 337
70 167 76 298 196 384 349 31 56 32 59 14 72 -24 18 -44 18 -51 0z"/>
<path d="M1853 1180 c-21 -16 -43 -58 -43 -80 0 -4 6 -10 14 -13 12 -5 26 17
63 95 8 16 -14 15 -34 -2z"/>
</g>
</svg>
