<?xml version="1.0" encoding="utf-8"?>
<!-- Generator: Adobe Illustrator 17.0.0, SVG Export Plug-In . SVG Version: 6.00 Build 0)  -->
<!DOCTYPE svg PUBLIC "-//W3C//DTD SVG 1.0//EN" "http://www.w3.org/TR/2001/REC-SVG-20010904/DTD/svg10.dtd">
<svg version="1.0" id="Layer_1" xmlns="http://www.w3.org/2000/svg" xmlns:xlink="http://www.w3.org/1999/xlink" x="0px" y="0px"
	 width="27.401px" height="44.075px" viewBox="0 0 27.401 44.075" enable-background="new 0 0 27.401 44.075" xml:space="preserve">
<g>
	<defs>
		<rect id="SVGID_1_" y="0" width="27.401" height="44.075"/>
	</defs>
	<clipPath id="SVGID_2_">
		<use xlink:href="#SVGID_1_"  overflow="visible"/>
	</clipPath>
	<path clip-path="url(#SVGID_2_)" fill="#FFFFFF" d="M20.586,6.132l-0.711,0.001c-0.039,0-0.092-0.022-0.12-0.049l-0.089-0.089
		c-0.028-0.028-0.082-0.05-0.121-0.05h-0.237c-0.039,0-0.092,0.022-0.119,0.05l-0.09,0.089c-0.027,0.027-0.081,0.049-0.12,0.049
		h-0.55c-0.038,0-0.097,0.017-0.13,0.037l-0.511,0.305c-0.033,0.02-0.088,0.052-0.121,0.072l-0.824,0.494
		c-0.033,0.02-0.091,0.037-0.13,0.037h-0.237c-0.039,0-0.082-0.03-0.096-0.066l-0.073-0.191c-0.014-0.037-0.05-0.086-0.08-0.111
		l-0.192-0.155c-0.03-0.024-0.023-0.046,0.016-0.048l0.047-0.002c0.038-0.002,0.093,0.018,0.122,0.045l0.075,0.068
		c0.029,0.026,0.083,0.051,0.122,0.057l0.108,0.015c0.038,0.005,0.101,0.01,0.14,0.01h0.048c0.039,0,0.092-0.023,0.12-0.05
		l0.089-0.089c0.028-0.028,0.05-0.082,0.05-0.12V6.393c0-0.039-0.028-0.085-0.063-0.102l-0.251-0.126
		c-0.035-0.018-0.093-0.043-0.129-0.058l-0.813-0.325c-0.037-0.015-0.096-0.034-0.134-0.044l-0.583-0.156
		c-0.037-0.01-0.099-0.011-0.136-0.003l-0.262,0.057c-0.038,0.009-0.091,0.038-0.118,0.065l-0.35,0.35
		c-0.027,0.027-0.07,0.073-0.096,0.103L13.68,6.567c-0.025,0.029-0.072,0.07-0.105,0.091l-0.394,0.25
		c-0.033,0.021-0.077,0.064-0.099,0.096l-0.131,0.2c-0.022,0.032-0.038,0.091-0.038,0.129l0.004,0.352
		c0,0.038,0.027,0.088,0.059,0.11l0.162,0.11c0.032,0.021,0.087,0.051,0.122,0.066l0.059,0.024C13.355,8.01,13.406,8,13.434,7.972
		l0.184-0.184c0.027-0.027,0.059-0.019,0.07,0.018L13.72,7.91c0.011,0.037,0.03,0.097,0.042,0.135l0.03,0.094
		c0.012,0.037,0.032,0.091,0.044,0.122c0.013,0.03,0.032,0.074,0.044,0.097c0.012,0.023,0.053,0.042,0.092,0.042h0.097
		c0.039,0,0.086-0.028,0.104-0.062l0.007-0.013c0.018-0.035,0.059-0.074,0.09-0.088c0.032-0.014,0.058-0.057,0.058-0.095V7.904
		c0-0.039,0.025-0.091,0.055-0.116l0.085-0.069c0.03-0.024,0.034-0.068,0.008-0.097l-0.101-0.114c-0.025-0.029-0.025-0.076,0-0.105
		l0.166-0.184c0.026-0.028,0.059-0.081,0.075-0.117l0.062-0.149c0.016-0.035,0.051-0.087,0.078-0.114l0.089-0.089
		c0.028-0.028,0.082-0.05,0.12-0.05h0.049c0.038,0,0.078,0.03,0.089,0.068l0.003,0.009c0.011,0.037-0.006,0.087-0.037,0.11
		l-0.191,0.148c-0.031,0.023-0.056,0.074-0.056,0.113v0.237c0,0.039,0.004,0.102,0.01,0.14l0.007,0.048
		c0.005,0.038,0.04,0.075,0.078,0.083l0.074,0.014c0.038,0.007,0.1,0.007,0.138,0l0.399-0.079c0.038-0.008,0.055,0.014,0.037,0.049
		l-0.041,0.078c-0.018,0.035-0.063,0.067-0.102,0.072l-0.269,0.034c-0.038,0.005-0.069,0.041-0.069,0.08v0.047
		c0,0.039,0.021,0.092,0.047,0.118c0.026,0.026,0.026,0.069,0,0.094c-0.026,0.026-0.07,0.025-0.097-0.002l-0.089-0.089
		c-0.028-0.028-0.072-0.028-0.1,0l-0.089,0.089c-0.027,0.027-0.05,0.081-0.05,0.12v0.048c0,0.039,0.021,0.092,0.048,0.118
		c0.025,0.026,0.023,0.069-0.004,0.096l-0.096,0.091c-0.027,0.027-0.082,0.049-0.121,0.049h-0.795c-0.039,0-0.093-0.023-0.12-0.05
		l-0.09-0.089c-0.027-0.027-0.027-0.073,0-0.1l0.09-0.089c0.027-0.028,0.027-0.072,0-0.1l-0.09-0.089
		c-0.027-0.027-0.071-0.028-0.097-0.003c-0.026,0.026-0.057,0.078-0.069,0.114l-0.144,0.434c-0.012,0.036-0.054,0.066-0.093,0.066
		h-0.048c-0.039,0-0.092,0.023-0.12,0.05L12.49,9.294c-0.027,0.028-0.081,0.05-0.12,0.05h-0.237c-0.039,0-0.092,0.021-0.118,0.047
		s-0.025,0.07,0.003,0.097l0.278,0.278c0.028,0.027,0.04,0.08,0.028,0.117l-0.05,0.149c-0.012,0.037-0.054,0.067-0.093,0.066
		l-0.445-0.005c-0.039,0-0.088,0.026-0.11,0.058l-0.125,0.189c-0.022,0.032-0.035,0.09-0.03,0.128l0.016,0.128
		c0.005,0.039-0.012,0.091-0.038,0.117c-0.026,0.026-0.025,0.07,0.002,0.098l0.184,0.183c0.028,0.027,0.081,0.049,0.12,0.049h0.237
		c0.039,0,0.093-0.022,0.12-0.049l0.278-0.278c0.028-0.028,0.05-0.082,0.05-0.12v-0.048c0-0.039,0.032-0.07,0.071-0.07h0.048
		c0.038,0,0.091-0.025,0.115-0.055l0.26-0.307c0.024-0.03,0.074-0.065,0.111-0.079l0.273-0.102c0.037-0.013,0.088-0.003,0.116,0.025
		l0.467,0.467c0.027,0.028,0.144,0.144,0.169,0.169c0.026,0.026,0.046,0.083,0.024,0.123c-0.022,0.039-0.049,0.071-0.049,0.114
		c-0.001,0.049,0.053,0.069,0.081,0.064s0.089-0.066,0.089-0.066c0.027-0.027,0.074-0.069,0.104-0.094l0.043-0.036
		c0.03-0.024,0.035-0.07,0.011-0.1l-0.498-0.637c-0.024-0.031-0.017-0.073,0.015-0.094l0.166-0.109
		c0.032-0.021,0.078-0.013,0.101,0.018l0.412,0.548c0.023,0.03,0.021,0.077-0.005,0.103c-0.026,0.026-0.026,0.071,0,0.1l0.199,0.223
		c0.025,0.029,0.078,0.053,0.117,0.053h0.048c0.039,0,0.051-0.025,0.029-0.057l-0.02-0.027c-0.023-0.03-0.02-0.078,0.008-0.106
		l0.089-0.089c0.027-0.028,0.081-0.044,0.118-0.036l0.23,0.044c0.038,0.008,0.071,0.04,0.073,0.071
		c0.003,0.031-0.016,0.078-0.042,0.105c-0.025,0.027-0.023,0.072,0.004,0.1l0.183,0.183c0.028,0.027,0.082,0.049,0.121,0.049h0.614
		c0.039,0,0.07,0.032,0.069,0.071L16.4,11.251c-0.001,0.038-0.03,0.084-0.065,0.101l-0.394,0.197
		c-0.034,0.017-0.093,0.042-0.129,0.054l-0.642,0.214c-0.037,0.012-0.089-0.001-0.117-0.028l-0.095-0.096
		c-0.027-0.027-0.081-0.049-0.12-0.049h-0.054c-0.039,0-0.092,0.022-0.12,0.049l-0.095,0.096c-0.027,0.027-0.05,0.081-0.05,0.12
		v0.054c0,0.039-0.032,0.07-0.07,0.07H14.2c-0.039,0-0.099-0.014-0.133-0.031l-0.653-0.327c-0.035-0.017-0.089-0.049-0.121-0.071
		l-0.45-0.309c-0.032-0.022-0.09-0.04-0.129-0.04h-0.46c-0.039,0-0.093,0.022-0.12,0.049L12.039,11.4
		c-0.028,0.027-0.082,0.049-0.12,0.049H11.67c-0.039,0-0.093,0.023-0.12,0.05l-0.096,0.095c-0.027,0.028-0.072,0.072-0.099,0.099
		l-0.679,0.68c-0.027,0.028-0.063,0.079-0.078,0.114l-0.088,0.201c-0.016,0.036-0.029,0.097-0.03,0.136l-0.046,1.281
		c-0.001,0.038,0.012,0.098,0.029,0.133l0.132,0.263c0.017,0.035,0.054,0.085,0.081,0.113l0.484,0.484
		c0.028,0.028,0.082,0.05,0.12,0.05h0.444c0.038,0,0.092-0.022,0.12-0.05l0.095-0.095c0.028-0.027,0.082-0.049,0.12-0.049h0.638
		c0.039,0,0.093,0.022,0.12,0.049l0.095,0.095c0.028,0.028,0.064,0.078,0.082,0.113l0.326,0.653
		c0.017,0.035,0.053,0.085,0.081,0.113l0.289,0.29c0.028,0.027,0.05,0.081,0.05,0.12v0.638c0,0.039,0.006,0.101,0.014,0.139
		l0.167,0.835c0.008,0.038,0.014,0.101,0.014,0.14v0.638c0,0.039,0.014,0.099,0.031,0.133l0.132,0.264
		c0.018,0.034,0.042,0.093,0.054,0.129l0.053,0.159c0.012,0.037,0.045,0.089,0.072,0.116l0.095,0.095
		c0.028,0.028,0.081,0.045,0.119,0.04l0.543-0.077c0.037-0.006,0.091-0.032,0.118-0.059l0.68-0.68
		c0.027-0.028,0.065-0.078,0.083-0.112l0.338-0.625c0.018-0.034,0.051-0.088,0.073-0.12l0.489-0.693
		c0.022-0.031,0.04-0.089,0.04-0.127v-0.249c0-0.039-0.022-0.093-0.05-0.12l-0.095-0.096c-0.027-0.027-0.05-0.081-0.05-0.12v-0.443
		c0-0.039,0.023-0.092,0.05-0.12l0.498-0.496c0.028-0.027,0.067-0.076,0.089-0.108l0.298-0.455c0.022-0.034,0.061-0.082,0.088-0.109
		l0.29-0.29c0.028-0.028,0.05-0.081,0.05-0.12V14.44c0-0.039-0.032-0.07-0.07-0.07h-0.638c-0.039,0-0.093-0.024-0.119-0.052
		l-0.629-0.676c-0.026-0.028-0.058-0.081-0.07-0.118l-0.431-1.286c-0.012-0.037,0.005-0.082,0.038-0.101
		c0.032-0.018,0.074-0.006,0.093,0.028l0.452,0.823c0.018,0.035,0.052,0.088,0.075,0.12l0.507,0.707
		c0.023,0.031,0.07,0.044,0.105,0.028l0.532-0.239c0.035-0.015,0.09-0.048,0.121-0.07l0.248-0.183
		c0.031-0.023,0.089-0.041,0.127-0.041h0.048c0.039,0,0.093-0.023,0.121-0.05l0.466-0.467c0.028-0.027,0.028-0.072,0-0.1
		l-0.089-0.089c-0.027-0.028-0.081-0.05-0.12-0.05h-0.048c-0.039,0-0.092-0.023-0.118-0.052l-0.084-0.093
		c-0.026-0.028-0.072-0.032-0.102-0.007l-0.083,0.066c-0.031,0.024-0.078,0.022-0.107-0.004l-0.469-0.429
		c-0.028-0.026-0.029-0.07-0.002-0.097l0.089-0.089c0.028-0.027,0.073-0.027,0.1,0l0.278,0.278c0.028,0.027,0.081,0.056,0.119,0.064
		l0.408,0.081c0.037,0.008,0.1,0.016,0.138,0.02l0.826,0.068c0.038,0.003,0.092,0.028,0.119,0.056l0.468,0.466
		c0.027,0.028,0.059,0.08,0.072,0.117l0.144,0.433c0.012,0.037,0.032,0.096,0.044,0.133l0.145,0.433
		c0.012,0.037,0.044,0.089,0.072,0.117l0.184,0.184c0.027,0.027,0.072,0.027,0.099,0l0.184-0.184
		c0.027-0.028,0.067-0.076,0.088-0.108l0.678-1.017c0.021-0.031,0.061-0.08,0.089-0.108l0.089-0.089
		c0.027-0.027,0.082-0.05,0.12-0.05h0.048c0.039,0,0.102-0.001,0.141-0.001l0.124-0.003v0.003h0.34
		c0.005-0.128,0.009-0.255,0.009-0.383C22.992,9.965,22.08,7.78,20.586,6.132 M17.111,10.338l-0.089,0.089
		c-0.027,0.028-0.082,0.051-0.12,0.051h-0.426c-0.039,0-0.093-0.023-0.12-0.051l-0.089-0.089c-0.028-0.027-0.082-0.05-0.121-0.05
		h-0.048c-0.038,0-0.092,0.023-0.12,0.05l-0.089,0.089c-0.028,0.028-0.081,0.051-0.12,0.051h-0.048
		c-0.039,0-0.093-0.023-0.121-0.051l-0.089-0.089c-0.027-0.027-0.05-0.082-0.05-0.12v-0.049c0-0.038,0.023-0.092,0.05-0.119
		l0.278-0.279c0.028-0.027,0.081-0.049,0.12-0.049h0.048c0.039,0,0.092,0.021,0.118,0.047c0.026,0.026,0.026,0.068,0,0.094
		c-0.026,0.026-0.026,0.069,0,0.094c0.026,0.027,0.069,0.026,0.097-0.002l0.372-0.372c0.028-0.028,0.082-0.05,0.121-0.05h0.048
		c0.039,0,0.054,0.027,0.035,0.061l-0.105,0.187c-0.02,0.034-0.018,0.088,0.005,0.119l0.095,0.141
		c0.022,0.032,0.072,0.058,0.111,0.058h0.048c0.038,0,0.093,0.023,0.12,0.05l0.089,0.089C17.138,10.266,17.138,10.312,17.111,10.338
		"/>
	<polyline clip-path="url(#SVGID_2_)" fill="#FFFFFF" points="7.188,11.605 7.189,11.604 7.189,11.601 7.188,11.605 	"/>
	<path clip-path="url(#SVGID_2_)" fill="#FFFFFF" d="M21.602,14.509l0.109-0.105c0.04-0.038,0.059-0.113,0.044-0.166l-0.054-0.178
		c-0.016-0.053-0.06-0.065-0.099-0.026l-0.239,0.24c-0.039,0.038-0.039,0.102,0,0.141l0.095,0.093
		C21.498,14.547,21.562,14.548,21.602,14.509"/>
	<path clip-path="url(#SVGID_2_)" fill="#FFFFFF" d="M17.532,18.014l0.139-0.257c0.018-0.034,0.047-0.091,0.063-0.126l0.255-0.54
		c0.016-0.035,0.036-0.094,0.043-0.132l0.022-0.119c0.008-0.038-0.008-0.091-0.034-0.117c-0.026-0.026-0.069-0.025-0.097,0.003
		l-0.278,0.278c-0.027,0.027-0.082,0.05-0.121,0.05h-0.047c-0.039,0-0.071,0.032-0.071,0.07v0.237c0,0.039-0.022,0.093-0.049,0.12
		l-0.09,0.09c-0.027,0.027-0.05,0.081-0.05,0.12v0.048c0,0.038,0.023,0.092,0.051,0.119l0.18,0.17
		C17.476,18.054,17.514,18.048,17.532,18.014"/>
	<path clip-path="url(#SVGID_2_)" fill="#FFFFFF" d="M13.873,11.048l0.106-0.106c0.033-0.033,0.022-0.059-0.024-0.059h-0.206
		c-0.046,0-0.063,0.031-0.037,0.07l0.056,0.084C13.793,11.076,13.84,11.081,13.873,11.048"/>
	<path clip-path="url(#SVGID_2_)" fill="#FFFFFF" d="M15.257,11.174l0.042-0.034c0.04-0.032,0.044-0.088,0.009-0.126l-0.078-0.081
		c-0.035-0.037-0.106-0.061-0.157-0.052L14.958,10.9c-0.051,0.008-0.063,0.044-0.027,0.081l0.187,0.186
		C15.154,11.203,15.217,11.206,15.257,11.174"/>
	<path clip-path="url(#SVGID_2_)" fill="#FFFFFF" d="M11.749,8.935l0.589-0.015c0.038-0.001,0.069-0.022,0.069-0.048
		c-0.001-0.025,0.02-0.068,0.047-0.096l0.091-0.096c0.027-0.028,0.048-0.083,0.048-0.122V8.545V8.404V8.357
		c0-0.039-0.031-0.071-0.07-0.071h-0.048c-0.039,0-0.07-0.032-0.07-0.07V8.168c0-0.039-0.023-0.093-0.05-0.121l-0.279-0.278
		c-0.027-0.027-0.027-0.072,0-0.099l0.09-0.09c0.027-0.027,0.027-0.072,0-0.099l-0.184-0.184c-0.027-0.028-0.072-0.028-0.099,0
		l-0.184,0.184c-0.027,0.027-0.05,0.081-0.05,0.12v0.237c0,0.039,0.032,0.07,0.07,0.07h0.049c0.038,0,0.084,0.029,0.102,0.063
		l0.125,0.252c0.018,0.035,0.01,0.087-0.016,0.115l-0.03,0.032c-0.026,0.028-0.041,0.082-0.033,0.12l0.001,0.008
		c0.008,0.038,0.01,0.08,0.004,0.094c-0.006,0.014-0.038,0.027-0.071,0.029c-0.033,0.002-0.061,0.036-0.062,0.075L11.787,8.7
		c-0.001,0.039-0.018,0.097-0.039,0.129l-0.031,0.048C11.696,8.91,11.71,8.936,11.749,8.935"/>
	<path clip-path="url(#SVGID_2_)" fill="#FFFFFF" d="M11.323,8.559h0.237c0.039,0,0.093-0.022,0.12-0.049l0.09-0.09
		c0.027-0.027,0.027-0.072,0-0.1l-0.09-0.089c-0.027-0.027-0.022-0.065,0.011-0.085l0.024-0.014
		c0.034-0.019,0.036-0.053,0.004-0.076l-0.031-0.022c-0.032-0.023-0.089-0.042-0.128-0.042h-0.048c-0.039,0-0.083,0.029-0.099,0.065
		l-0.007,0.015c-0.016,0.035-0.057,0.074-0.091,0.087c-0.034,0.012-0.063,0.054-0.063,0.093V8.3v0.141v0.048
		C11.252,8.528,11.285,8.559,11.323,8.559"/>
	<path clip-path="url(#SVGID_2_)" fill="#FFFFFF" d="M7.365,13.382l-0.086-0.086c-0.027-0.027-0.079-0.048-0.117-0.048H6.933
		c-0.037,0-0.089-0.022-0.116-0.048l-0.086-0.086c-0.027-0.027-0.079-0.049-0.116-0.049H6.568c-0.037,0-0.089,0.022-0.116,0.049
		L6.366,13.2c-0.027,0.026-0.018,0.048,0.02,0.048h0.229c0.037,0,0.089,0.021,0.116,0.048l0.086,0.086
		c0.027,0.026,0.079,0.048,0.116,0.048h0.412C7.383,13.43,7.391,13.408,7.365,13.382"/>
	<path clip-path="url(#SVGID_2_)" fill="#FFFFFF" d="M7.877,13.459H7.838c-0.032,0-0.075,0.017-0.096,0.038
		c-0.022,0.021-0.056,0.021-0.078,0c-0.021-0.021-0.038-0.012-0.039,0.019v0.04c0,0.031-0.026,0.057-0.058,0.057H7.528
		c-0.032,0-0.04,0.018-0.017,0.041l0.073,0.073c0.022,0.022,0.058,0.023,0.08,0.002c0.021-0.022,0.056-0.022,0.078,0
		c0.021,0.021,0.064,0.035,0.095,0.029l0.026-0.004c0.031-0.004,0.078-0.021,0.103-0.036s0.063-0.045,0.084-0.066
		c0.022-0.022,0.02-0.057-0.002-0.079l-0.073-0.074C7.953,13.477,7.909,13.458,7.877,13.459"/>
	<path clip-path="url(#SVGID_2_)" fill="#FFFFFF" d="M7.12,13.614c-0.037,0-0.046,0.022-0.02,0.049l0.084,0.083
		c0.026,0.027,0.068,0.028,0.093,0.003c0.025-0.024,0.025-0.065,0-0.09c-0.025-0.024-0.075-0.045-0.113-0.045H7.12z"/>
	<path clip-path="url(#SVGID_2_)" fill="#FFFFFF" d="M11.35,6.568c0.019,0.02,0.036,0.059,0.036,0.089l0.001,0.033
		c0,0.03,0.025,0.054,0.054,0.055h0.036c0.029,0,0.07,0.016,0.09,0.036c0.02,0.019,0.06,0.036,0.09,0.036h0.18
		c0.029,0,0.07-0.018,0.091-0.039l0.207-0.209c0.021-0.021,0.021-0.055,0-0.077l-0.132-0.135c-0.021-0.021-0.061-0.039-0.091-0.039
		l-0.183-0.003c-0.029-0.001-0.071,0.016-0.092,0.037l-0.069,0.066c-0.021,0.021-0.056,0.023-0.077,0.005
		c-0.021-0.018-0.055-0.05-0.075-0.071l-0.065-0.07c-0.02-0.021-0.054-0.021-0.074,0l-0.068,0.07
		c-0.021,0.021-0.038,0.062-0.038,0.092V6.48c0,0.029,0.025,0.053,0.054,0.053h0.036C11.29,6.533,11.33,6.549,11.35,6.568"/>
	<path clip-path="url(#SVGID_2_)" fill="#FFFFFF" d="M6.569,7.796C6.533,7.788,6.48,7.803,6.452,7.828L6.371,7.902
		C6.343,7.927,6.342,7.969,6.369,7.995l0.054,0.053c0.026,0.026,0.07,0.026,0.098,0.001l0.18-0.169
		C6.728,7.855,6.72,7.827,6.684,7.82L6.569,7.796z"/>
	<path clip-path="url(#SVGID_2_)" fill="#FFFFFF" d="M11.211,16.667c-0.079-0.038-0.184-0.106-0.232-0.151s-0.198-0.108-0.332-0.141
		c-0.135-0.033-0.289-0.067-0.343-0.073c-0.053-0.008-0.194-0.067-0.313-0.133c-0.12-0.066-0.316-0.211-0.437-0.324
		c-0.12-0.113-0.296-0.201-0.389-0.198c-0.093,0.003-0.327-0.142-0.52-0.322c-0.194-0.179-0.466-0.323-0.606-0.318
		c-0.14,0.005-0.294-0.028-0.342-0.073c-0.049-0.045-0.203-0.078-0.343-0.073c-0.053,0.003-0.112,0.013-0.167,0.029l-0.285-0.288
		c-0.027-0.027-0.075-0.032-0.107-0.013l-0.078,0.046c-0.032,0.019-0.084,0.017-0.116-0.003l-0.04-0.026
		c-0.032-0.021-0.057-0.068-0.056-0.105l0.002-0.134c0.001-0.037-0.022-0.087-0.051-0.111l-0.211-0.174
		c-0.029-0.024-0.082-0.05-0.118-0.058L5.976,13.99c-0.037-0.008-0.045-0.036-0.018-0.063l0.086-0.086
		c0.026-0.026,0.048-0.079,0.048-0.116v-0.229c0-0.038-0.031-0.068-0.068-0.068H5.978c-0.038,0-0.09,0.022-0.117,0.048l-0.086,0.086
		c-0.027,0.027-0.079,0.048-0.116,0.048H5.422c-0.038,0-0.068,0.002-0.068,0.003c0,0.002-0.03,0.004-0.068,0.003H5.242
		c-0.038-0.001-0.09-0.024-0.116-0.05l-0.085-0.087c-0.026-0.027-0.047-0.08-0.046-0.117l0.003-0.234
		c0.001-0.037,0.001-0.098,0.001-0.135l-0.002-0.221c0-0.038,0.02-0.089,0.045-0.114c0.026-0.026,0.068-0.068,0.095-0.095
		l0.177-0.178c0.027-0.026,0.079-0.048,0.116-0.048h0.777c0.037,0,0.09,0.022,0.116,0.048l0.086,0.087
		c0.027,0.026,0.048,0.078,0.048,0.116v0.046c0,0.038,0.022,0.09,0.049,0.116l0.086,0.087c0.027,0.026,0.07,0.026,0.096,0
		l0.087-0.087c0.026-0.026,0.026-0.069,0-0.096l-0.087-0.086c-0.026-0.027-0.048-0.079-0.048-0.116v-0.229
		c0-0.038,0.022-0.09,0.048-0.117l0.452-0.455c0.026-0.027,0.048-0.079,0.048-0.116v-0.042c0-0.038-0.022-0.09-0.048-0.117
		l-0.087-0.086c-0.026-0.026-0.027-0.068-0.002-0.094c0.025-0.025,0.067-0.024,0.094,0.003l0.086,0.087
		c0.027,0.026,0.069,0.027,0.094,0.002c0.025-0.026,0.045-0.077,0.045-0.114v-0.046c0-0.038,0.021-0.091,0.046-0.118l0.494-0.536
		c0.026-0.028,0.076-0.057,0.113-0.065l0.113-0.027c0.037-0.009,0.093,0,0.126,0.018l0.144,0.079c0.033,0.018,0.06,0.063,0.06,0.101
		l0.001,0.044c0,0.037,0.03,0.067,0.068,0.066h0.058c0.037-0.002,0.089-0.024,0.115-0.051l0.136-0.141
		c0.026-0.027,0.018-0.058-0.019-0.068l-0.294-0.083c-0.036-0.009-0.087-0.04-0.113-0.066l-0.087-0.087
		c-0.026-0.026-0.04-0.077-0.029-0.113l0.005-0.017c0.01-0.037-0.012-0.07-0.049-0.076l-0.09-0.014
		c-0.037-0.005-0.089,0.012-0.116,0.038l-0.268,0.269c-0.027,0.026-0.069,0.027-0.094,0.002c-0.025-0.024-0.024-0.066,0.002-0.093
		l0.36-0.36c0.027-0.027,0.079-0.049,0.117-0.049l0.465-0.004c0.038,0,0.054,0.027,0.037,0.06L8.59,9.993
		c-0.018,0.033-0.011,0.08,0.014,0.104c0.025,0.025,0.076,0.045,0.113,0.046l0.406,0.001c0.037,0,0.088,0.021,0.113,0.046
		c0.025,0.025,0.066,0.025,0.092,0c0.025-0.025,0.045-0.077,0.045-0.114v-0.047c0-0.037-0.022-0.089-0.048-0.116L9.148,9.736
		C9.121,9.709,9.123,9.668,9.152,9.645l0.012-0.01c0.029-0.023,0.083-0.043,0.121-0.043H9.4C9.437,9.59,9.482,9.564,9.5,9.53
		l0.03-0.056c0.018-0.033,0.01-0.082-0.016-0.108L9.428,9.28C9.401,9.253,9.349,9.231,9.311,9.232l-0.23,0.001
		C9.044,9.235,8.991,9.242,8.962,9.25C8.934,9.259,8.898,9.243,8.881,9.211C8.865,9.181,8.856,9.125,8.862,9.087h0.001
		c0.006-0.038,0.003-0.098-0.007-0.134L8.85,8.932C8.84,8.896,8.815,8.84,8.794,8.811L8.505,8.375
		C8.484,8.344,8.445,8.34,8.419,8.368l-0.27,0.271C8.122,8.664,8.071,8.676,8.036,8.664L7.891,8.618
		c-0.035-0.013-0.085-0.043-0.11-0.068C7.756,8.524,7.757,8.482,7.784,8.455L7.87,8.369c0.026-0.027,0.026-0.07,0-0.096l-0.269-0.27
		C7.575,7.978,7.522,7.956,7.485,7.956H7.257c-0.038,0-0.068,0.03-0.068,0.068v0.229c0,0.037-0.002,0.098-0.005,0.136L7.157,8.764
		c-0.003,0.038-0.02,0.095-0.039,0.128L7.001,9.097c-0.018,0.033-0.056,0.08-0.085,0.104L6.652,9.426
		c-0.028,0.025-0.078,0.04-0.11,0.034C6.509,9.455,6.47,9.423,6.455,9.389L6.321,9.092C6.306,9.058,6.266,9.016,6.232,9l-0.57-0.28
		C5.628,8.704,5.613,8.663,5.629,8.629l0.117-0.262c0.015-0.034,0.044-0.088,0.063-0.12l0.189-0.309
		c0.02-0.032,0.065-0.067,0.101-0.078l0.043-0.014c0.036-0.012,0.063-0.051,0.06-0.089L6.201,7.742
		c-0.002-0.038,0.011-0.087,0.03-0.11C6.251,7.608,6.297,7.59,6.334,7.59h0.045c0.038,0,0.09,0.019,0.117,0.042
		c0.027,0.023,0.07,0.023,0.096,0c0.025-0.023,0.024-0.064-0.003-0.09L6.412,7.363C6.386,7.337,6.386,7.294,6.413,7.268l0.092-0.087
		c0.027-0.026,0.069-0.069,0.093-0.096C6.622,7.058,6.657,7.01,6.674,6.978L6.768,6.8C6.786,6.768,6.82,6.717,6.845,6.688
		l0.079-0.093c0.025-0.029,0.075-0.052,0.113-0.052h0.046c0.037,0,0.096,0.013,0.129,0.029l0.249,0.119
		C7.495,6.708,7.546,6.74,7.575,6.764l0.11,0.09c0.029,0.024,0.06,0.063,0.07,0.088C7.764,6.967,7.748,7.007,7.72,7.031L7.653,7.09
		C7.625,7.114,7.605,7.164,7.609,7.202l0.037,0.356c0.004,0.037,0.038,0.07,0.075,0.072l0.598,0.038
		c0.037,0.002,0.07-0.026,0.074-0.064l0.004-0.048C8.4,7.52,8.376,7.472,8.344,7.454l-0.17-0.097
		C8.141,7.34,8.127,7.299,8.143,7.271c0.015-0.03,0.054-0.038,0.085-0.017l0.153,0.1c0.031,0.02,0.075,0.013,0.098-0.017l0.04-0.052
		c0.023-0.029,0.02-0.075-0.006-0.103L8.231,6.889c-0.025-0.027-0.067-0.072-0.091-0.1L7.465,6.017
		C7.452,6.002,7.23,5.792,7.082,5.889C7.074,5.893,7.07,5.897,7.063,5.899C5.44,7.571,4.438,9.85,4.438,12.359
		c0,0.447,0.033,0.887,0.095,1.318c0.083,0.24,0.284,0.291,0.392,0.3c-0.001-0.004-0.001-0.009-0.002-0.013
		c0.002,0,0.004,0.002,0.006,0.002H4.93c0.036,0.007,0.087-0.007,0.111-0.032c0.025-0.025,0.076-0.044,0.113-0.043l0.049,0.001
		c0.037,0.001,0.097,0.011,0.133,0.022l0.16,0.049c0.035,0.011,0.086,0.043,0.112,0.07l0.072,0.076
		c0.026,0.027,0.077,0.054,0.114,0.06l0.202,0.033c0.036,0.007,0.087,0.035,0.112,0.062l0.105,0.119
		c0.025,0.028,0.045,0.081,0.044,0.119l-0.002,0.277c0,0.037,0.03,0.068,0.067,0.068h0.052c0.037,0,0.09,0.022,0.116,0.048
		l0.086,0.086c0.027,0.026,0.07,0.026,0.096,0l0.087-0.086c0.026-0.026,0.069-0.026,0.095,0.001l0.114,0.118
		c-0.065,0.08-0.128,0.262-0.145,0.418c-0.018,0.165-0.106,0.378-0.196,0.474c-0.09,0.097-0.154,0.359-0.142,0.583
		c0.012,0.223,0.149,0.571,0.305,0.773c0.155,0.201,0.374,0.424,0.484,0.495c0.111,0.072,0.238,0.285,0.284,0.473
		c0.036,0.152,0.087,0.386,0.124,0.574c0.006,0.024,0.011,0.051,0.016,0.081c0.003,0.015,0.006,0.031,0.009,0.045
		c0.003,0.016,0.007,0.033,0.012,0.049c-0.003-0.002-0.005-0.004-0.007-0.006c0.032,0.22,0.071,0.514,0.216,0.628
		c0.535,0.428,1.117,0.798,1.739,1.101c0.092-0.022,0.049-0.248,0.02-0.369C9.684,20.332,9.682,20.33,9.68,20.33
		c0-0.012-0.001-0.023-0.004-0.037c-0.005-0.021-0.009-0.034-0.009-0.034h0.001c-0.039-0.15-0.082-0.303-0.1-0.348
		c-0.019-0.048-0.033-0.141-0.03-0.208c0.002-0.066,0.025-0.169,0.051-0.228c0.026-0.06,0.066-0.129,0.089-0.153
		c0.022-0.024,0.059-0.064,0.081-0.088c0.023-0.024,0.115-0.123,0.205-0.219c0.09-0.097,0.161-0.252,0.158-0.346
		c-0.004-0.093,0.03-0.209,0.075-0.257c0.045-0.048,0.158-0.09,0.252-0.094c0.093-0.003,0.279-0.124,0.414-0.269
		c0.135-0.145,0.243-0.34,0.24-0.433c-0.003-0.094,0.068-0.249,0.157-0.345c0.091-0.098,0.149-0.256,0.129-0.356
		C11.371,16.817,11.29,16.705,11.211,16.667"/>
	<path clip-path="url(#SVGID_2_)" fill="#FFFFFF" d="M9.465,4.402C9.53,4.421,9.637,4.43,9.693,4.434
		c0.057,0.004,0.291,0.01,0.316,0.022l0.167,0.086c0.024,0.012,0.067,0.023,0.094,0.023l0.18,0.002
		c0.028,0.001,0.048,0.024,0.047,0.051l-0.002,0.029c-0.002,0.028-0.019,0.066-0.038,0.087l-0.06,0.064
		c-0.019,0.02-0.047,0.052-0.062,0.069c-0.015,0.018-0.029,0.055-0.031,0.082l-0.002,0.042c-0.002,0.028,0.013,0.066,0.032,0.086
		l0.532,0.53c0.02,0.019,0.056,0.045,0.082,0.056l0.175,0.078c0.025,0.012,0.062,0.006,0.083-0.012l0.059-0.054
		c0.02-0.018,0.038-0.056,0.039-0.083l0.004-0.18c0.001-0.028,0.018-0.066,0.036-0.086l0.055-0.057
		c0.02-0.02,0.051-0.053,0.071-0.071l0.195-0.193c0.019-0.019,0.052-0.051,0.071-0.071L12.073,4.6
		c0.019-0.019,0.057-0.034,0.085-0.034h0.064c0.027,0.001,0.063-0.017,0.079-0.038l0.097-0.129c0.016-0.022,0.048-0.053,0.07-0.069
		l0.157-0.114c0.022-0.016,0.054-0.047,0.069-0.07l0.059-0.083c0.016-0.023,0.028-0.064,0.028-0.091l-0.007-0.167
		c0-0.027,0-0.073,0-0.1l0.001-0.037c0.001-0.028,0.022-0.06,0.047-0.072l0.306-0.145c0.009-0.004,0.013-0.008,0.015-0.011
		c0.189-0.012,0.379-0.018,0.571-0.018c1.533,0,2.977,0.388,4.238,1.07c0,0,0.155,0.069,0.228-0.057
		c0.079-0.139-0.043-0.228-0.043-0.228c-1.316-0.716-2.822-1.125-4.423-1.125c-1.621,0-3.146,0.418-4.473,1.152
		C9.284,4.287,9.399,4.383,9.465,4.402"/>
	<path clip-path="url(#SVGID_2_)" fill="#FFFFFF" d="M21.685,15.884H21.65c-0.03,0-0.069,0.017-0.09,0.037l-0.277,0.278
		c-0.02,0.019-0.054,0.019-0.074,0l-0.067-0.067c-0.02-0.021-0.053-0.021-0.074,0l-0.277,0.277c-0.02,0.021-0.037,0.038-0.037,0.038
		c-0.001,0-0.018,0.017-0.038,0.037l-0.065,0.066c-0.02,0.02-0.061,0.037-0.09,0.037h-0.176c-0.029,0-0.069,0.017-0.089,0.036
		l-0.207,0.208c-0.021,0.02-0.037,0.06-0.037,0.089v0.176c0,0.029,0.016,0.069,0.037,0.09l0.066,0.066
		c0.021,0.021,0.037,0.061,0.037,0.09v0.457c0,0.029,0.017,0.069,0.038,0.089l0.066,0.067c0.02,0.02,0.053,0.02,0.074,0l0.066-0.067
		c0.021-0.02,0.061-0.036,0.09-0.035l0.229,0.004c-1.637,2.092-4.184,3.44-7.04,3.44c-0.622,0-1.229-0.066-1.815-0.188
		c0,0-0.165-0.019-0.197,0.117c-0.037,0.156,0.111,0.212,0.111,0.212c0.614,0.129,1.249,0.198,1.901,0.198
		c3.752,0,6.99-2.239,8.45-5.451l-0.381-0.277C21.759,15.895,21.714,15.884,21.685,15.884"/>
	<path clip-path="url(#SVGID_2_)" fill="#FFFFFF" d="M5.157,40.947c-0.225,0-1.498-0.03-2.249-0.03c-0.749,0-2.009,0.03-2.233,0.03
		v-0.854c0.899,0,1.229-0.196,1.229-1.244v-6.042c0-1.05-0.33-1.244-1.229-1.244v-0.856c0.224,0,1.499,0.031,2.248,0.031
		c0.75,0,2.009-0.031,2.234-0.031v0.856c-0.899,0-1.229,0.194-1.229,1.244v6.042c0,1.048,0.33,1.244,1.229,1.244V40.947z"/>
	<path clip-path="url(#SVGID_2_)" fill="#FFFFFF" d="M26.677,40.947c-0.225,0-1.498-0.03-2.248-0.03s-2.009,0.03-2.234,0.03v-0.854
		c0.899,0,1.23-0.196,1.23-1.244v-5.308l-3.163,7.406h-1.335l-3.178-7.406v5.248c0,1.048,0.45,1.304,1.349,1.304v0.854
		c-0.45,0-1.2-0.03-1.948-0.03c-0.75,0-1.515,0.03-1.965,0.03v-0.854c0.899,0,1.425-0.256,1.425-1.304v-5.982
		c0-1.05-0.63-1.244-1.53-1.244v-0.856c0.225,0,1.185,0.031,1.935,0.031s1.288-0.031,1.739-0.031l3.343,7.797l3.328-7.797
		c0.345,0,0.795,0.031,1.543,0.031c0.75,0,1.26-0.031,1.709-0.031v0.856c-0.899,0-1.228,0.194-1.228,1.244v6.042
		c0,1.048,0.329,1.244,1.228,1.244V40.947z"/>
	<path clip-path="url(#SVGID_2_)" fill="#FFFFFF" d="M11.444,31.562c-0.9,0-1.229,0.195-1.229,1.245v6.041
		c0,1.634-0.241,2.383-0.691,3.088c-0.734,1.169-2.503,1.883-3.133,2.139l-0.188-0.397c1.169-0.848,1.492-1.457,1.732-2.132
		c0.211-0.585,0.255-1.319,0.255-2.698v-6.041c0-1.2-0.495-1.245-1.394-1.245v-0.855c0.226,0,1.575,0.03,2.324,0.03
		s2.099-0.03,2.324-0.03V31.562z"/>
	<path clip-path="url(#SVGID_2_)" fill="#FFFFFF" d="M1.947,11.863l0.108-0.259l0.205,0.014l-0.358,0.735
		c-0.087,0.196-0.286,0.27-0.552,0.251c-0.344-0.023-0.554-0.183-0.53-0.53c0.023-0.347,0.254-0.476,0.596-0.453
		c0.257,0.017,0.439,0.112,0.506,0.301h0.002L1.947,11.863z M1.363,12.405c0.207,0.014,0.386-0.032,0.403-0.266
		c0.015-0.235-0.156-0.303-0.363-0.317s-0.386,0.03-0.402,0.265C0.985,12.321,1.156,12.39,1.363,12.405"/>
	<path clip-path="url(#SVGID_2_)" fill="#FFFFFF" d="M1.599,11.361l-0.683-0.116l0.033-0.195l0.683,0.116
		c0.131,0.021,0.24-0.002,0.275-0.208c0.035-0.206-0.06-0.265-0.192-0.286l-0.682-0.116l0.033-0.195l0.683,0.116
		c0.235,0.039,0.395,0.174,0.338,0.511C2.028,11.326,1.833,11.399,1.599,11.361"/>
</g>
<path fill="#FFFFFF" d="M1.599,9.725L1.436,9.621l0.195-0.01l0.327-0.018L1.874,9.906L1.599,9.725z M1.278,9.458L1.217,9.68
	l0.963,0.675l0.056-0.204l-0.217-0.149l0.113-0.419l0.262-0.017l0.055-0.205L1.278,9.458z"/>
<polygon fill="#FFFFFF" points="1.779,8.034 1.949,8.097 1.744,8.642 1.987,8.734 2.17,8.25 2.34,8.315 2.158,8.798 2.425,8.898 
	2.639,8.329 2.81,8.392 2.525,9.146 1.505,8.763 "/>
<g>
	<defs>
		<rect id="SVGID_3_" y="0" width="27.401" height="44.075"/>
	</defs>
	<clipPath id="SVGID_4_">
		<use xlink:href="#SVGID_3_"  overflow="visible"/>
	</clipPath>
	<path clip-path="url(#SVGID_4_)" fill="#FFFFFF" d="M3.02,7.929L2.934,8.105L1.956,7.627L2.155,7.22
		c0.084-0.171,0.221-0.308,0.462-0.19c0.173,0.085,0.208,0.207,0.183,0.331l0.52-0.042L3.217,7.527L2.726,7.559L2.636,7.741
		L3.02,7.929z M2.591,7.419c0.031-0.062,0.059-0.148-0.063-0.208c-0.123-0.06-0.174,0.015-0.204,0.077L2.206,7.53l0.267,0.131
		L2.591,7.419z"/>
</g>
<rect x="2.486" y="6.639" transform="matrix(-0.8662 -0.4997 0.4997 -0.8662 2.289 14.0877)" fill="#FFFFFF" width="1.089" height="0.196"/>
<polygon fill="#FFFFFF" points="3.965,6.275 3.856,6.439 3.101,5.934 2.923,6.199 2.772,6.099 3.237,5.403 3.389,5.504 3.211,5.77 
	"/>
<polygon fill="#FFFFFF" points="3.919,4.533 4.061,4.647 3.696,5.101 3.898,5.264 4.221,4.862 4.363,4.976 4.04,5.378 4.262,5.556 
	4.644,5.083 4.786,5.196 4.281,5.824 3.431,5.14 "/>
<rect x="4.517" y="4.015" transform="matrix(-0.702 -0.7121 0.7121 -0.702 5.6858 10.607)" fill="#FFFFFF" width="1.09" height="0.198"/>
<g>
	<defs>
		<rect id="SVGID_5_" y="0" width="27.401" height="44.075"/>
	</defs>
	<clipPath id="SVGID_6_">
		<use xlink:href="#SVGID_5_"  overflow="visible"/>
	</clipPath>
	<path clip-path="url(#SVGID_6_)" fill="#FFFFFF" d="M5.505,3.884L5.058,3.356l0.15-0.127l0.447,0.527
		C5.74,3.858,5.84,3.91,5.999,3.775c0.159-0.135,0.125-0.241,0.039-0.343L5.591,2.904l0.15-0.128l0.447,0.527
		c0.154,0.182,0.189,0.388-0.071,0.61C5.855,4.134,5.658,4.066,5.505,3.884"/>
	<path clip-path="url(#SVGID_6_)" fill="#FFFFFF" d="M6.696,3.417L6.078,2.518l0.321-0.222c0.276-0.189,0.516-0.148,0.728,0.161
		C7.34,2.769,7.292,3.006,7.016,3.196L6.696,3.417z M6.913,3.046c0.188-0.128,0.174-0.29,0.049-0.474
		C6.835,2.388,6.69,2.318,6.502,2.447L6.344,2.556l0.412,0.599L6.913,3.046z"/>
</g>
<rect x="6.989" y="2.124" transform="matrix(-0.5018 -0.865 0.865 -0.5018 9.391 9.8554)" fill="#FFFFFF" width="1.09" height="0.198"/>
<g>
	<defs>
		<rect id="SVGID_7_" y="0" width="27.401" height="44.075"/>
	</defs>
	<clipPath id="SVGID_8_">
		<use xlink:href="#SVGID_7_"  overflow="visible"/>
	</clipPath>
	<path clip-path="url(#SVGID_8_)" fill="#FFFFFF" d="M8.529,2.127C8.662,2.063,8.697,1.986,8.658,1.86l0.187-0.066
		c0.072,0.198,0.017,0.374-0.237,0.498C8.304,2.439,8.087,2.295,7.939,1.988C7.792,1.682,7.812,1.423,8.116,1.275
		C8.37,1.152,8.543,1.217,8.654,1.397L8.485,1.502C8.41,1.395,8.329,1.374,8.196,1.438C7.993,1.536,8.032,1.717,8.12,1.901
		C8.209,2.083,8.326,2.227,8.529,2.127"/>
</g>
<rect x="8.628" y="1.329" transform="matrix(-0.367 -0.9302 0.9302 -0.367 11.2109 10.484)" fill="#FFFFFF" width="1.09" height="0.197"/>
<g>
	<defs>
		<rect id="SVGID_9_" y="0" width="27.401" height="44.075"/>
	</defs>
	<clipPath id="SVGID_10_">
		<use xlink:href="#SVGID_9_"  overflow="visible"/>
	</clipPath>
	<path clip-path="url(#SVGID_10_)" fill="#FFFFFF" d="M9.668,1.391L9.464,0.73l0.188-0.059l0.204,0.662
		c0.039,0.127,0.11,0.213,0.309,0.151c0.199-0.061,0.208-0.173,0.17-0.3L10.13,0.523l0.189-0.058l0.204,0.662
		c0.07,0.226,0.022,0.43-0.304,0.531C9.892,1.759,9.738,1.618,9.668,1.391"/>
</g>
<polygon fill="#FFFFFF" points="11.392,1.339 11.091,0.842 10.999,0.685 11.057,0.979 11.135,1.389 10.946,1.426 10.742,0.355 
	10.966,0.311 11.3,0.851 11.412,1.039 11.448,0.823 11.559,0.196 11.784,0.153 11.988,1.223 11.799,1.26 11.721,0.851 11.667,0.556 
	11.639,0.737 11.541,1.31 "/>
<g>
	<defs>
		<rect id="SVGID_11_" y="0" width="27.401" height="44.075"/>
	</defs>
	<clipPath id="SVGID_12_">
		<use xlink:href="#SVGID_11_"  overflow="visible"/>
	</clipPath>
	<path clip-path="url(#SVGID_12_)" fill="#FFFFFF" d="M12.683,0.746c-0.112,0.007-0.21-0.077-0.218-0.189
		c-0.007-0.113,0.077-0.211,0.19-0.219c0.112-0.007,0.211,0.077,0.219,0.191C12.882,0.639,12.795,0.737,12.683,0.746"/>
	<path clip-path="url(#SVGID_12_)" fill="#FFFFFF" d="M13.376,0.792l0.2-0.02c0.015,0.128,0.093,0.175,0.242,0.177
		c0.11-0.001,0.235-0.04,0.235-0.16c0.001-0.096-0.056-0.136-0.238-0.156c-0.2-0.018-0.397-0.071-0.397-0.305
		c0.001-0.23,0.187-0.33,0.399-0.328c0.287,0.002,0.417,0.129,0.435,0.337l-0.2,0.019c-0.015-0.129-0.087-0.173-0.237-0.175
		c-0.074,0.002-0.199,0.027-0.199,0.15c0,0.076,0.042,0.108,0.212,0.126c0.268,0.027,0.422,0.077,0.421,0.333
		c-0.001,0.244-0.214,0.343-0.432,0.34C13.52,1.128,13.397,1.009,13.376,0.792"/>
	<path clip-path="url(#SVGID_12_)" fill="#FFFFFF" d="M14.547,0.732l0.075-0.688l0.195,0.02l-0.074,0.689
		c-0.014,0.133,0.017,0.239,0.224,0.261c0.207,0.023,0.261-0.076,0.275-0.208l0.073-0.688l0.197,0.02l-0.075,0.688
		c-0.025,0.237-0.149,0.406-0.49,0.369C14.607,1.158,14.522,0.968,14.547,0.732"/>
	<path clip-path="url(#SVGID_12_)" fill="#FFFFFF" d="M15.632,1.261l0.216-1.069l0.462,0.093c0.136,0.028,0.309,0.113,0.259,0.361
		c-0.022,0.11-0.085,0.171-0.141,0.192c0.069,0.047,0.108,0.146,0.083,0.275c-0.054,0.261-0.23,0.28-0.413,0.243L15.632,1.261z
		 M16.126,1.175c0.063,0.013,0.162,0.025,0.187-0.104c0.027-0.129-0.055-0.16-0.124-0.173l-0.271-0.055l-0.057,0.28L16.126,1.175z
		 M16.006,0.41l-0.052,0.255l0.254,0.05c0.082,0.017,0.14,0.003,0.161-0.102C16.39,0.51,16.343,0.477,16.26,0.46L16.006,0.41z"/>
</g>
<polygon fill="#FFFFFF" points="16.994,1.6 17.18,1.658 17.898,0.713 17.69,0.65 17.319,1.165 17.16,1.387 17.152,1.115 
	17.129,0.481 16.92,0.417 "/>
<polygon fill="#FFFFFF" points="18.884,1.107 18.815,1.275 18.277,1.056 18.179,1.297 18.656,1.491 18.587,1.66 18.109,1.465 
	18.002,1.73 18.565,1.96 18.496,2.127 17.751,1.824 18.163,0.813 "/>
<polygon fill="#FFFFFF" points="19.304,1.9 19.286,1.701 19.167,1.933 18.948,2.348 18.774,2.257 19.283,1.291 19.444,1.376 
	19.516,2.049 19.533,2.248 19.654,2.017 19.872,1.601 20.047,1.693 19.538,2.659 19.377,2.573 "/>
<rect x="20.114" y="1.89" transform="matrix(-0.8451 -0.5346 0.5346 -0.8451 35.9926 15.2993)" fill="#FFFFFF" width="0.196" height="1.091"/>
<polygon fill="#FFFFFF" points="20.663,3.402 20.504,3.287 21.038,2.549 20.779,2.363 20.886,2.215 21.563,2.705 21.456,2.852 
	21.198,2.665 "/>
<polygon fill="#FFFFFF" points="22.43,3.441 22.31,3.578 21.872,3.195 21.701,3.393 22.089,3.73 21.97,3.868 21.581,3.529 
	21.394,3.745 21.853,4.144 21.733,4.281 21.126,3.753 21.842,2.93 "/>
<g>
	<defs>
		<rect id="SVGID_13_" y="0" width="27.401" height="44.075"/>
	</defs>
	<clipPath id="SVGID_14_">
		<use xlink:href="#SVGID_13_"  overflow="visible"/>
	</clipPath>
	<path clip-path="url(#SVGID_14_)" fill="#FFFFFF" d="M22.616,4.385c0.258-0.228,0.519-0.265,0.75-0.005
		c0.229,0.261,0.159,0.515-0.099,0.743s-0.52,0.264-0.749,0.005C22.287,4.867,22.357,4.613,22.616,4.385 M22.748,4.534
		c-0.155,0.137-0.25,0.297-0.094,0.474c0.155,0.175,0.324,0.101,0.48-0.036c0.155-0.136,0.25-0.295,0.095-0.471
		C23.074,4.324,22.903,4.398,22.748,4.534"/>
	<path clip-path="url(#SVGID_14_)" fill="#FFFFFF" d="M23.153,5.882l-0.114-0.16l0.884-0.639l0.245,0.338
		c0.106,0.148,0.165,0.344-0.056,0.504c-0.223,0.16-0.388,0.046-0.496-0.104l-0.129-0.179L23.153,5.882z M24.029,5.539l-0.138-0.191
		l-0.256,0.186l0.138,0.191c0.04,0.055,0.108,0.116,0.22,0.036C24.105,5.679,24.069,5.595,24.029,5.539"/>
	<path clip-path="url(#SVGID_14_)" fill="#FFFFFF" d="M23.704,6.689L23.602,6.52l0.934-0.564l0.215,0.357
		c0.095,0.156,0.137,0.356-0.097,0.497c-0.235,0.141-0.39,0.013-0.485-0.144l-0.114-0.19L23.704,6.689z M24.603,6.42l-0.121-0.202
		l-0.27,0.164l0.121,0.201c0.035,0.058,0.098,0.125,0.217,0.053C24.668,6.565,24.639,6.478,24.603,6.42"/>
	<path clip-path="url(#SVGID_14_)" fill="#FFFFFF" d="M24.212,7.588l-0.086-0.177l0.982-0.478l0.198,0.409
		c0.083,0.171,0.107,0.362-0.135,0.48c-0.174,0.085-0.292,0.037-0.375-0.06l-0.287,0.437l-0.101-0.208l0.277-0.409L24.597,7.4
		L24.212,7.588z M24.879,7.562c0.031,0.062,0.081,0.139,0.204,0.079c0.123-0.06,0.094-0.147,0.065-0.21L25.03,7.19l-0.268,0.131
		L24.879,7.562z"/>
</g>
<polygon fill="#FFFFFF" points="25.903,8.788 25.731,8.853 25.528,8.307 25.285,8.398 25.465,8.881 25.295,8.943 25.115,8.463 
	24.846,8.562 25.059,9.131 24.889,9.195 24.608,8.441 25.629,8.059 "/>
<g>
	<defs>
		<rect id="SVGID_15_" y="0" width="27.401" height="44.075"/>
	</defs>
	<clipPath id="SVGID_16_">
		<use xlink:href="#SVGID_15_"  overflow="visible"/>
	</clipPath>
	<path clip-path="url(#SVGID_16_)" fill="#FFFFFF" d="M25.277,9.373l0.072,0.188c-0.118,0.047-0.143,0.135-0.104,0.28
		c0.029,0.106,0.102,0.215,0.217,0.184c0.093-0.025,0.116-0.091,0.086-0.272c-0.036-0.198-0.038-0.401,0.188-0.463
		c0.221-0.061,0.367,0.089,0.422,0.295c0.076,0.278-0.013,0.437-0.208,0.509l-0.072-0.187c0.121-0.048,0.144-0.13,0.104-0.275
		c-0.02-0.07-0.078-0.184-0.196-0.152c-0.073,0.021-0.094,0.071-0.065,0.237c0.046,0.267,0.039,0.429-0.208,0.496
		c-0.234,0.065-0.387-0.114-0.444-0.325C24.993,9.602,25.073,9.452,25.277,9.373"/>
	<path clip-path="url(#SVGID_16_)" fill="#FFFFFF" d="M25.565,10.499l0.055,0.193c-0.124,0.037-0.156,0.122-0.13,0.27
		c0.019,0.107,0.079,0.223,0.198,0.203c0.094-0.016,0.125-0.079,0.111-0.261c-0.017-0.202,0.001-0.405,0.231-0.445
		c0.226-0.041,0.357,0.125,0.393,0.334c0.048,0.283-0.055,0.433-0.255,0.488l-0.054-0.194c0.124-0.037,0.155-0.115,0.13-0.263
		c-0.014-0.074-0.061-0.191-0.182-0.171c-0.075,0.014-0.1,0.062-0.088,0.231c0.022,0.269-0.001,0.429-0.253,0.473
		c-0.24,0.043-0.375-0.15-0.411-0.364C25.26,10.699,25.355,10.557,25.565,10.499"/>
	<path clip-path="url(#SVGID_16_)" fill="#FFFFFF" d="M25.979,11.642c0.344-0.025,0.575,0.105,0.598,0.451
		c0.024,0.347-0.187,0.508-0.53,0.532c-0.343,0.025-0.574-0.104-0.598-0.451C25.425,11.826,25.636,11.666,25.979,11.642
		 M25.993,11.841c-0.207,0.015-0.379,0.086-0.363,0.32c0.017,0.234,0.196,0.278,0.403,0.263c0.206-0.015,0.379-0.083,0.362-0.318
		C26.38,11.873,26.2,11.826,25.993,11.841"/>
	<path clip-path="url(#SVGID_16_)" fill="#FFFFFF" d="M27.341,15.692c-0.142,0.027-0.288,0.081-0.434,0.154l-0.009-0.001
		c-0.042,0.024-0.189,0.11-0.219,0.129c0,0-0.014,0.013-0.021,0.018c-0.37,0.251-0.722,0.616-0.992,1.005
		c0.152-0.388,0.288-0.784,0.402-1.192h-0.001c-0.02-0.06-0.067-0.107-0.133-0.121c-0.064-0.014-0.126,0.011-0.168,0.057h-0.003
		c-0.167,0.586-0.374,1.152-0.618,1.696c-0.028-0.529-0.354-1.183-0.726-1.598c-0.265,0.745,0.058,1.54,0.544,1.987
		c-0.349,0.711-0.76,1.382-1.228,2.005c0.084-0.522-0.093-1.226-0.366-1.71c-0.417,0.669-0.275,1.51,0.1,2.053
		c-0.492,0.61-1.037,1.168-1.629,1.672c0.179-0.49,0.155-1.193-0.003-1.71c-0.545,0.557-0.593,1.395-0.355,2.004
		c-0.548,0.433-1.131,0.822-1.745,1.158c0.226-0.439,0.326-1.049,0.288-1.535c-0.624,0.407-0.859,1.164-0.791,1.794
		c-0.762,0.375-1.568,0.673-2.401,0.887c0.414-0.345,0.73-1.048,0.817-1.621c-0.752,0.273-1.161,1.044-1.189,1.71
		c-0.541,0.121-1.094,0.209-1.656,0.258l0.072-0.17l0.195-0.474c0.027-0.065,0.017-0.141-0.028-0.196l-0.269-0.341
		c-0.038-0.048-0.095-0.076-0.154-0.076c-0.009,0-0.018,0.002-0.027,0.004c-0.069,0.008-0.129,0.054-0.155,0.119l-0.302,0.735
		c-0.005-0.008-0.01-0.015-0.015-0.022c-0.066-0.079-0.173-0.119-0.316-0.119c-0.186,0-0.29,0.062-0.348,0.125
		c-0.002-0.002-0.003-0.004-0.004-0.007c-0.066-0.078-0.173-0.118-0.315-0.118c-0.084,0-0.15,0.014-0.204,0.034l-0.258-0.628
		c-0.027-0.065-0.085-0.111-0.155-0.119c-0.008-0.002-0.018-0.004-0.027-0.004c-0.059,0-0.116,0.028-0.154,0.076l-0.269,0.341
		c-0.044,0.055-0.055,0.131-0.027,0.196l0.194,0.472l0.059,0.14c-0.554-0.061-1.097-0.161-1.629-0.294
		c-0.013-0.086-0.056-0.17-0.129-0.236c-0.286-0.259-0.553-0.543-0.791-0.842c-0.092-0.114-0.233-0.173-0.378-0.156
		c-0.062,0.008-0.121,0.029-0.173,0.062c-0.117,0.075-0.18,0.2-0.173,0.333c0,0,0.006,0.06,0.005,0.063c0,0-0.092-0.161-0.121-0.222
		l-0.004-0.01c-0.095-0.194-0.18-0.395-0.257-0.596c-0.067-0.177-0.243-0.286-0.431-0.263c-0.02,0.003-0.04,0.007-0.061,0.014
		c-0.103,0.028-0.19,0.096-0.241,0.189c-0.045,0.089-0.054,0.194-0.02,0.292c0.01,0.037,0.025,0.072,0.038,0.109l0.003,0.01
		c-0.001,0.007-0.003,0.009-0.003,0.009c-0.036,0.001-0.171-0.084-0.28-0.151l-0.089-0.056H7.563
		c-0.024-0.015-0.047-0.031-0.072-0.047c-0.095-0.062-0.205-0.088-0.312-0.075c-0.046,0.005-0.09,0.02-0.131,0.04
		c-0.107-0.067-0.215-0.136-0.321-0.207c0.013-0.082-0.002-0.169-0.047-0.253c-0.185-0.339-0.344-0.693-0.471-1.056
		c-0.05-0.138-0.163-0.238-0.306-0.269c-0.062-0.013-0.123-0.012-0.184,0.001c-0.134,0.032-0.236,0.13-0.273,0.257
		c0,0-0.013,0.06-0.016,0.062c0,0-0.032-0.183-0.04-0.25l-0.002-0.01c-0.024-0.216-0.04-0.433-0.045-0.647
		c-0.006-0.19-0.137-0.348-0.322-0.389c-0.02-0.004-0.04-0.008-0.062-0.008c-0.107-0.008-0.212,0.027-0.289,0.1
		c-0.074,0.068-0.115,0.164-0.117,0.269c0,0.039,0,0.076,0.001,0.116v0.01c-0.003,0.005-0.006,0.007-0.006,0.007
		c-0.033-0.012-0.134-0.136-0.215-0.233l-0.066-0.084H4.266c-0.017-0.022-0.034-0.044-0.052-0.067
		c-0.069-0.091-0.166-0.153-0.27-0.175c-0.022-0.005-0.044-0.007-0.066-0.007c-0.1-0.127-0.198-0.256-0.294-0.387
		c0.034-0.067,0.05-0.146,0.04-0.228c-0.045-0.383-0.059-0.771-0.042-1.156c0.006-0.146-0.062-0.283-0.183-0.364
		c-0.052-0.036-0.11-0.057-0.17-0.067c-0.137-0.021-0.269,0.031-0.351,0.137c0,0-0.033,0.049-0.036,0.05
		c0,0,0.037-0.181,0.056-0.247L2.9,17.826c0.057-0.208,0.123-0.415,0.199-0.616c0.066-0.177,0.004-0.375-0.153-0.481
		c-0.018-0.011-0.034-0.022-0.054-0.03c-0.096-0.048-0.207-0.054-0.305-0.015c-0.095,0.035-0.17,0.109-0.21,0.205
		c-0.014,0.036-0.028,0.071-0.042,0.107l-0.004,0.009c-0.005,0.004-0.008,0.006-0.008,0.006c-0.028-0.024-0.074-0.176-0.111-0.298
		L2.18,16.611H2.179c-0.007-0.027-0.015-0.055-0.023-0.083c-0.031-0.109-0.096-0.201-0.185-0.261
		c-0.058-0.041-0.122-0.061-0.187-0.065c-0.049-0.153-0.096-0.306-0.14-0.461H1.642c-0.043-0.046-0.105-0.071-0.169-0.057
		c-0.066,0.014-0.113,0.061-0.133,0.121H1.339c0.049,0.172,0.101,0.342,0.156,0.511c-0.015,0.018-0.029,0.036-0.041,0.056
		c-0.063,0.106-0.078,0.237-0.041,0.366c0.041,0.146,0.086,0.295,0.136,0.443c0.019,0.065,0.019,0.091,0.018,0.103
		c-0.002-0.001-0.004,0-0.007-0.001c-0.037-0.025-0.074-0.046-0.11-0.07c-0.099-0.066-0.214-0.084-0.316-0.052
		c-0.097,0.033-0.174,0.11-0.214,0.219c-0.078,0.213,0.015,0.492,0.206,0.621l0.023,0.014c0.165,0.1,0.336,0.195,0.509,0.283
		c0,0,0.393,0.204,0.394,0.212c-0.003-0.002-0.083,0-0.083,0c-0.129,0.012-0.233,0.095-0.279,0.225
		c-0.07,0.199,0.025,0.457,0.217,0.589c0.013,0.007,0.026,0.015,0.039,0.023c0.383,0.211,0.781,0.393,1.183,0.539
		c0.07,0.025,0.141,0.03,0.206,0.016c0.081,0.109,0.162,0.218,0.246,0.323c-0.039,0.049-0.067,0.108-0.079,0.174
		c-0.017,0.12,0.018,0.249,0.099,0.353c0.093,0.12,0.192,0.241,0.293,0.361c0.042,0.053,0.051,0.077,0.055,0.088
		c-0.001,0-0.004,0.002-0.007,0.002c-0.043-0.007-0.084-0.016-0.128-0.025c-0.117-0.023-0.23,0.004-0.312,0.071
		c-0.078,0.067-0.12,0.168-0.115,0.283c0.007,0.228,0.196,0.449,0.421,0.499l0.026,0.005c0.192,0.032,0.386,0.055,0.58,0.073
		c0,0,0.44,0.041,0.443,0.046c-0.002,0.001-0.077,0.034-0.077,0.034c-0.115,0.059-0.181,0.175-0.174,0.312
		c0.008,0.21,0.193,0.416,0.419,0.465c0.017,0.002,0.032,0.006,0.048,0.007c0.433,0.052,0.871,0.072,1.298,0.057
		c0.065-0.002,0.126-0.019,0.179-0.048c0.102,0.068,0.205,0.134,0.309,0.2c-0.007,0.041-0.008,0.085,0,0.13
		c0.021,0.12,0.097,0.229,0.209,0.302c0.126,0.084,0.259,0.165,0.394,0.244c0.057,0.036,0.074,0.056,0.082,0.066
		c-0.002,0-0.004,0.003-0.008,0.005c-0.042,0.006-0.085,0.013-0.127,0.018c-0.119,0.017-0.217,0.079-0.273,0.169
		c-0.051,0.089-0.058,0.197-0.017,0.305c0.081,0.211,0.335,0.361,0.563,0.333l0.026-0.003c0.192-0.035,0.382-0.074,0.57-0.122
		c0,0,0.431-0.104,0.436-0.101c-0.003,0.002-0.063,0.055-0.063,0.055c-0.089,0.095-0.112,0.226-0.061,0.352
		c0.077,0.197,0.319,0.331,0.55,0.303c0.015-0.003,0.03-0.007,0.046-0.008c0.427-0.093,0.846-0.219,1.244-0.372
		c0.056-0.021,0.102-0.053,0.14-0.092c0.618,0.154,1.252,0.264,1.898,0.325l-0.13,0.31l-0.195,0.471
		c-0.026,0.066-0.016,0.142,0.028,0.198l0.269,0.341c0.038,0.047,0.095,0.074,0.154,0.074c0.01,0,0.019-0.002,0.028-0.002
		c0.069-0.01,0.128-0.055,0.154-0.12l0.288-0.702c0.067,0.07,0.169,0.108,0.305,0.108c0.212,0,0.318-0.081,0.371-0.152
		c0.006,0.012,0.013,0.023,0.022,0.033c0.066,0.079,0.171,0.119,0.315,0.119c0.113,0,0.195-0.023,0.257-0.056l0.266,0.65
		c0.027,0.065,0.086,0.11,0.155,0.12c0.009,0,0.018,0.002,0.027,0.002c0.06,0,0.117-0.027,0.154-0.074l0.27-0.341
		c0.043-0.056,0.055-0.132,0.027-0.198l-0.194-0.471l-0.13-0.309c0.557-0.051,1.104-0.14,1.641-0.261
		c0.015,0.023,0.031,0.047,0.05,0.069c0.74,0.606,1.828,0.798,2.861,0.188l-0.001-0.002c0.054-0.032,0.108-0.064,0.162-0.101
		c-0.112-0.093-0.246-0.17-0.396-0.239l-0.004-0.005c-0.045-0.02-0.206-0.077-0.239-0.087c0,0-0.019-0.004-0.027-0.007
		c-0.384-0.111-0.83-0.152-1.257-0.131c0.558-0.182,1.1-0.402,1.624-0.656c0.036,0.058,0.084,0.118,0.152,0.165
		c0.86,0.422,1.962,0.361,2.828-0.469l-0.001-0.002c0.045-0.043,0.09-0.086,0.135-0.134c-0.13-0.065-0.279-0.111-0.44-0.142
		l-0.005-0.005c-0.048-0.009-0.218-0.028-0.252-0.031c0,0-0.02,0.002-0.029,0.001c-0.449-0.025-0.956,0.053-1.409,0.201l-0.25,0.033
		c0.566-0.321,1.105-0.684,1.616-1.086c0.035,0.028,0.074,0.054,0.12,0.072c0.93,0.227,1.994-0.07,2.661-1.066l-0.003-0.002
		c0.036-0.053,0.071-0.105,0.104-0.161c-0.141-0.036-0.296-0.048-0.46-0.044l-0.006-0.004c-0.049,0.003-0.219,0.021-0.254,0.025
		c0,0-0.018,0.005-0.027,0.006c-0.444,0.073-0.923,0.26-1.333,0.502l-0.028,0.008c0.455-0.419,0.879-0.873,1.269-1.357
		c0.035,0.015,0.072,0.027,0.112,0.035c0.956,0.02,1.932-0.499,2.368-1.616l-0.002-0.001c0.024-0.058,0.045-0.117,0.066-0.179
		c-0.145-0.004-0.299,0.017-0.458,0.057l-0.008-0.003c-0.046,0.013-0.208,0.067-0.241,0.079c0,0-0.018,0.008-0.026,0.012
		c-0.412,0.164-0.835,0.444-1.179,0.763c0.334-0.493,0.635-1.011,0.9-1.554c0.035,0.005,0.072,0.01,0.111,0.008
		c0.938-0.187,1.779-0.904,1.964-2.089h-0.002C27.326,15.819,27.336,15.757,27.341,15.692 M12.421,24.544l-0.195-0.471l0.269-0.342
		l0.275,0.668c-0.02,0.026-0.033,0.05-0.04,0.069l-0.171,0.407L12.421,24.544z M12.484,25.054l-0.001,0.004v-0.006
		C12.483,25.053,12.483,25.053,12.484,25.054 M12.928,25.475l-0.334,0.813l-0.269-0.34l0.195-0.473l0.38-0.906l0.008-0.017
		c0.001-0.003,0.002-0.007,0.004-0.009c0-0.002,0.005-0.012,0.014-0.024c0.002-0.002,0.002-0.004,0.003-0.006
		c0.026-0.029,0.082-0.065,0.21-0.065c0.197,0,0.18,0.096,0.18,0.096L12.928,25.475z M13.596,25.475c0,0-0.021,0.098-0.227,0.098
		c-0.198,0-0.181-0.098-0.181-0.098l0.391-0.931c0,0,0.021-0.096,0.227-0.096c0.198,0,0.182,0.096,0.182,0.096L13.596,25.475z
		 M14.307,25.469c-0.001,0-0.001,0.001-0.001,0.001c-0.001,0.003-0.002,0.006-0.004,0.009c0,0.001,0,0.002,0,0.004
		c-0.009,0.021-0.052,0.09-0.225,0.09c-0.198,0-0.181-0.098-0.181-0.098l0.391-0.931l0.334-0.813l0.269,0.342l-0.195,0.471
		l-0.188,0.451L14.307,25.469z M15.051,25.948l-0.269,0.34l-0.3-0.731c0.002-0.001,0.002-0.003,0.003-0.005l0.202-0.48l0.171,0.403
		L15.051,25.948z"/>
	<path clip-path="url(#SVGID_16_)" fill="#FFFFFF" d="M2.799,13.35c-0.526,0.035-0.827-0.155-1.022-0.152
		c-0.189,0.004-0.291,0.071-0.364,0.153c-0.073-0.082-0.175-0.149-0.364-0.153c-0.195-0.003-0.495,0.187-1.022,0.152
		C0.021,13.488,0,14.993,0,14.993l1.169-0.017c0.043,0.087,0.07,0.11,0.237,0.112h0.007H1.42c0.167-0.002,0.194-0.025,0.237-0.112
		l1.169,0.017C2.826,14.993,2.805,13.488,2.799,13.35 M1.26,14.719c-0.095-0.065-0.194-0.117-0.331-0.111
		c-0.137,0.006-0.381,0.129-0.708,0.133C0.22,14.5,0.236,13.806,0.25,13.581c0.223,0.037,0.575-0.12,0.721-0.117
		c0.146,0.004,0.245,0.077,0.289,0.18V14.719z M1.897,14.608c-0.137-0.006-0.235,0.046-0.331,0.111v-1.075
		c0.044-0.103,0.143-0.176,0.29-0.18c0.145-0.003,0.497,0.154,0.721,0.117c0.013,0.225,0.029,0.919,0.029,1.16
		C2.279,14.737,2.034,14.614,1.897,14.608"/>
	<path clip-path="url(#SVGID_16_)" fill="#FFFFFF" d="M27.374,13.35c-0.526,0.035-0.827-0.155-1.022-0.152
		c-0.189,0.004-0.291,0.071-0.364,0.153c-0.073-0.082-0.175-0.149-0.364-0.153c-0.194-0.003-0.495,0.187-1.022,0.152
		c-0.006,0.138-0.027,1.643-0.027,1.643l1.168-0.017c0.044,0.087,0.071,0.11,0.238,0.112h0.007h0.007
		c0.167-0.002,0.194-0.025,0.237-0.112l1.168,0.017C27.4,14.993,27.379,13.488,27.374,13.35 M25.835,14.719
		c-0.096-0.065-0.193-0.117-0.331-0.111c-0.137,0.006-0.382,0.129-0.708,0.133c-0.001-0.241,0.016-0.935,0.029-1.16
		c0.223,0.037,0.575-0.12,0.721-0.117c0.146,0.004,0.245,0.077,0.289,0.18V14.719z M26.472,14.608
		c-0.137-0.006-0.235,0.046-0.331,0.111v-1.075c0.044-0.103,0.143-0.176,0.289-0.18c0.146-0.003,0.498,0.154,0.721,0.117
		c0.014,0.225,0.03,0.919,0.03,1.16C26.854,14.737,26.609,14.614,26.472,14.608"/>
</g>
</svg>
