<svg xmlns="http://www.w3.org/2000/svg" xmlns:xlink="http://www.w3.org/1999/xlink" id="Layer_1" xml:space="preserve" height="44.08" viewBox="0 0 27.4 44.08" width="27.4" version="1" y="0" x="0" enable-background="new 0 0 27.401 44.075"><defs><rect id="SVGID_1_" y="0" width="27.4" height="44.08"/></defs><clipPath id="SVGID_2_"><use overflow="visible" xlink:href="#SVGID_1_"/></clipPath><path fill="#fff" d="m20.59 6.13l-0.71 0c-0.04 0-0.09-0.02-0.12-0.05l-0.09-0.09c-0.03-0.03-0.08-0.05-0.12-0.05h-0.24c-0.04 0-0.09 0.02-0.12 0.05l-0.09 0.09c-0.03 0.03-0.08 0.05-0.12 0.05h-0.55c-0.04 0-0.1 0.02-0.13 0.04l-0.51 0.31c-0.03 0.02-0.09 0.05-0.12 0.07l-0.82 0.49c-0.03 0.02-0.09 0.04-0.13 0.04h-0.24c-0.04 0-0.08-0.03-0.1-0.07l-0.07-0.19c-0.01-0.04-0.05-0.09-0.08-0.11l-0.19-0.15c-0.03-0.02-0.02-0.05 0.02-0.05l0.05 0c0.04 0 0.09 0.02 0.12 0.05l0.08 0.07c0.03 0.03 0.08 0.05 0.12 0.06l0.11 0.02c0.04 0.01 0.1 0.01 0.14 0.01h0.05c0.04 0 0.09-0.02 0.12-0.05l0.09-0.09c0.03-0.03 0.05-0.08 0.05-0.12v-0.05c0-0.04-0.03-0.08-0.06-0.1l-0.25-0.13c-0.04-0.02-0.09-0.04-0.13-0.06l-0.81-0.32c-0.04-0.01-0.1-0.03-0.13-0.04l-0.58-0.16c-0.04-0.01-0.1-0.01-0.14 0l-0.26 0.06c-0.04 0.01-0.09 0.04-0.12 0.07l-0.35 0.35c-0.03 0.03-0.07 0.07-0.1 0.1l-0.36 0.41c-0.02 0.03-0.07 0.07-0.1 0.09l-0.39 0.25c-0.03 0.02-0.08 0.06-0.1 0.1l-0.13 0.2c-0.02 0.03-0.04 0.09-0.04 0.13l0 0.35c0 0.04 0.03 0.09 0.06 0.11l0.16 0.11c0.03 0.02 0.09 0.05 0.12 0.07l0.06 0.02c0.04 0.02 0.09 0.01 0.12-0.02l0.18-0.18c0.03-0.03 0.06-0.02 0.07 0.02l0.03 0.1c0.01 0.04 0.03 0.1 0.04 0.14l0.03 0.09c0.01 0.04 0.03 0.09 0.04 0.12 0.01 0.03 0.03 0.07 0.04 0.1s0.05 0.04 0.09 0.04h0.1c0.04 0 0.09-0.03 0.1-0.06l0.01-0.01c0.02-0.04 0.06-0.07 0.09-0.09 0.03-0.01 0.06-0.06 0.06-0.09v-0.24c0-0.04 0.03-0.09 0.06-0.12l0.09-0.07c0.03-0.02 0.03-0.07 0.01-0.1l-0.1-0.11c-0.02-0.03-0.02-0.08 0-0.1l0.17-0.18c0.03-0.03 0.06-0.08 0.08-0.12l0.06-0.15c0.02-0.04 0.05-0.09 0.08-0.11l0.09-0.09c0.03-0.03 0.08-0.05 0.12-0.05h0.05c0.04 0 0.08 0.03 0.09 0.07l0 0.01c0.01 0.04-0.01 0.09-0.04 0.11l-0.19 0.15c-0.03 0.02-0.06 0.07-0.06 0.11v0.24c0 0.04 0 0.1 0.01 0.14l0.01 0.05c0.01 0.04 0.04 0.08 0.08 0.08l0.07 0.01c0.04 0.01 0.1 0.01 0.14 0l0.4-0.08c0.04-0.01 0.06 0.01 0.04 0.05l-0.04 0.08c-0.02 0.04-0.06 0.07-0.1 0.07l-0.27 0.03c-0.04 0.01-0.07 0.04-0.07 0.08v0.05c0 0.04 0.02 0.09 0.05 0.12s0.03 0.07 0 0.09c-0.03 0.03-0.07 0.03-0.1 0l-0.09-0.09c-0.03-0.03-0.07-0.03-0.1 0l-0.09 0.09c-0.03 0.03-0.05 0.08-0.05 0.12v0.05c0 0.04 0.02 0.09 0.05 0.12 0.03 0.03 0.02 0.07 0 0.1l-0.1 0.09c-0.03 0.03-0.08 0.05-0.12 0.05h-0.79c-0.04 0-0.09-0.02-0.12-0.05l-0.09-0.09c-0.03-0.03-0.03-0.07 0-0.1l0.09-0.09c0.03-0.03 0.03-0.07 0-0.1l-0.09-0.09c-0.03-0.03-0.07-0.03-0.1 0-0.03 0.03-0.06 0.08-0.07 0.11l-0.14 0.43c-0.01 0.04-0.05 0.07-0.09 0.07h-0.05c-0.04 0-0.09 0.02-0.12 0.05l-0.47 0.47c-0.03 0.03-0.08 0.05-0.12 0.05h-0.24c-0.04 0-0.09 0.02-0.12 0.05s-0.02 0.07 0 0.1l0.28 0.28c0.03 0.03 0.04 0.08 0.03 0.12l-0.05 0.15c-0.01 0.04-0.05 0.07-0.09 0.07l-0.44 0c-0.04 0-0.09 0.03-0.11 0.06l-0.12 0.19c-0.02 0.03-0.04 0.09-0.03 0.13l0.02 0.13c0.01 0.04-0.01 0.09-0.04 0.12s-0.02 0.07 0 0.1l0.18 0.18c0.03 0.03 0.08 0.05 0.12 0.05h0.24c0.04 0 0.09-0.02 0.12-0.05l0.28-0.28c0.03-0.03 0.05-0.08 0.05-0.12v-0.05c0-0.04 0.03-0.07 0.07-0.07h0.05c0.04 0 0.09-0.02 0.12-0.05l0.26-0.31c0.02-0.03 0.07-0.06 0.11-0.08l0.27-0.1c0.04-0.01 0.09 0 0.12 0.03l0.47 0.47c0.03 0.03 0.14 0.14 0.17 0.17 0.03 0.03 0.05 0.08 0.02 0.12-0.02 0.04-0.05 0.07-0.05 0.11 0 0.05 0.05 0.07 0.08 0.06s0.09-0.07 0.09-0.07c0.03-0.03 0.07-0.07 0.1-0.09l0.04-0.04c0.03-0.02 0.04-0.07 0.01-0.1l-0.5-0.64c-0.02-0.03-0.02-0.07 0.02-0.09l0.17-0.11c0.03-0.02 0.08-0.01 0.1 0.02l0.41 0.55c0.02 0.03 0.02 0.08 0 0.1s-0.03 0.07 0 0.1l0.2 0.22c0.03 0.03 0.08 0.05 0.12 0.05h0.05c0.04 0 0.05-0.02 0.03-0.06l-0.02-0.03c-0.02-0.03-0.02-0.08 0.01-0.11l0.09-0.09c0.03-0.03 0.08-0.04 0.12-0.04l0.23 0.04c0.04 0.01 0.07 0.04 0.07 0.07 0 0.03-0.02 0.08-0.04 0.11-0.02 0.03-0.02 0.07 0 0.1l0.18 0.18c0.03 0.03 0.08 0.05 0.12 0.05h0.61c0.04 0 0.07 0.03 0.07 0.07l0 0.14c0 0.04-0.03 0.08-0.06 0.1l-0.39 0.2c-0.03 0.02-0.09 0.04-0.13 0.05l-0.64 0.21c-0.04 0.01-0.09 0-0.12-0.03l-0.09-0.1c-0.03-0.03-0.08-0.05-0.12-0.05h-0.05c-0.04 0-0.09 0.02-0.12 0.05l-0.09 0.1c-0.03 0.03-0.05 0.08-0.05 0.12v0.05c0 0.04-0.03 0.07-0.07 0.07h-0.25c-0.04 0-0.1-0.01-0.13-0.03l-0.65-0.33c-0.04-0.02-0.09-0.05-0.12-0.07l-0.45-0.31c-0.03-0.02-0.09-0.04-0.13-0.04h-0.46c-0.04 0-0.09 0.02-0.12 0.05l-0.09 0.1c-0.03 0.03-0.08 0.05-0.12 0.05h-0.25c-0.04 0-0.09 0.02-0.12 0.05l-0.1 0.1c-0.03 0.03-0.07 0.07-0.1 0.1l-0.68 0.68c-0.03 0.03-0.06 0.08-0.08 0.11l-0.09 0.2c-0.02 0.04-0.03 0.1-0.03 0.14l-0.05 1.28c0 0.04 0.01 0.1 0.03 0.13l0.13 0.26c0.02 0.04 0.05 0.09 0.08 0.11l0.48 0.48c0.03 0.03 0.08 0.05 0.12 0.05h0.44c0.04 0 0.09-0.02 0.12-0.05l0.1-0.09c0.03-0.03 0.08-0.05 0.12-0.05h0.64c0.04 0 0.09 0.02 0.12 0.05l0.1 0.1c0.03 0.03 0.06 0.08 0.08 0.11l0.33 0.65c0.02 0.04 0.05 0.09 0.08 0.11l0.29 0.29c0.03 0.03 0.05 0.08 0.05 0.12v0.64c0 0.04 0.01 0.1 0.01 0.14l0.17 0.84c0.01 0.04 0.01 0.1 0.01 0.14v0.64c0 0.04 0.01 0.1 0.03 0.13l0.13 0.26c0.02 0.03 0.04 0.09 0.05 0.13l0.05 0.16c0.01 0.04 0.05 0.09 0.07 0.12l0.1 0.1c0.03 0.03 0.08 0.05 0.12 0.04l0.54-0.08c0.04-0.01 0.09-0.03 0.12-0.06l0.68-0.68c0.03-0.03 0.07-0.08 0.08-0.11l0.34-0.62c0.02-0.03 0.05-0.09 0.07-0.12l0.49-0.69c0.02-0.03 0.04-0.09 0.04-0.13v-0.25c0-0.04-0.02-0.09-0.05-0.12l-0.09-0.1c-0.03-0.03-0.05-0.08-0.05-0.12v-0.44c0-0.04 0.02-0.09 0.05-0.12l0.5-0.5c0.03-0.03 0.07-0.08 0.09-0.11l0.3-0.45c0.02-0.03 0.06-0.08 0.09-0.11l0.29-0.29c0.03-0.03 0.05-0.08 0.05-0.12v-0.05c0-0.04-0.03-0.07-0.07-0.07h-0.64c-0.04 0-0.09-0.02-0.12-0.05l-0.63-0.68c-0.03-0.03-0.06-0.08-0.07-0.12l-0.43-1.29c-0.01-0.04 0.01-0.08 0.04-0.1 0.03-0.02 0.07-0.01 0.09 0.03l0.45 0.82c0.02 0.04 0.05 0.09 0.08 0.12l0.51 0.71c0.02 0.03 0.07 0.04 0.11 0.03l0.53-0.24c0.04-0.01 0.09-0.05 0.12-0.07l0.25-0.18c0.03-0.02 0.09-0.04 0.13-0.04h0.05c0.04 0 0.09-0.02 0.12-0.05l0.47-0.47c0.03-0.03 0.03-0.07 0-0.1l-0.09-0.09c-0.03-0.03-0.08-0.05-0.12-0.05h-0.05c-0.04 0-0.09-0.02-0.12-0.05l-0.08-0.09c-0.03-0.03-0.07-0.03-0.1-0.01l-0.08 0.07c-0.03 0.02-0.08 0.02-0.11 0l-0.47-0.43c-0.03-0.03-0.03-0.07 0-0.1l0.09-0.09c0.03-0.03 0.07-0.03 0.1 0l0.28 0.28c0.03 0.03 0.08 0.06 0.12 0.06l0.41 0.08c0.04 0.01 0.1 0.02 0.14 0.02l0.83 0.07c0.04 0 0.09 0.03 0.12 0.06l0.47 0.47c0.03 0.03 0.06 0.08 0.07 0.12l0.14 0.43c0.01 0.04 0.03 0.1 0.04 0.13l0.14 0.43c0.01 0.04 0.04 0.09 0.07 0.12l0.18 0.18c0.03 0.03 0.07 0.03 0.1 0l0.18-0.18c0.03-0.03 0.07-0.08 0.09-0.11l0.68-1.02c0.02-0.03 0.06-0.08 0.09-0.11l0.09-0.09c0.03-0.03 0.08-0.05 0.12-0.05h0.05c0.04 0 0.1 0 0.14 0l0.12 0v0h0.34c0.01-0.13 0.01-0.25 0.01-0.38 0-2.39-0.91-4.58-2.41-6.23m-3.47 4.21l-0.09 0.09c-0.03 0.03-0.08 0.05-0.12 0.05h-0.43c-0.04 0-0.09-0.02-0.12-0.05l-0.09-0.09c-0.03-0.03-0.08-0.05-0.12-0.05h-0.05c-0.04 0-0.09 0.02-0.12 0.05l-0.09 0.09c-0.03 0.03-0.08 0.05-0.12 0.05h-0.05c-0.04 0-0.09-0.02-0.12-0.05l-0.09-0.09c-0.03-0.03-0.05-0.08-0.05-0.12v-0.05c0-0.04 0.02-0.09 0.05-0.12l0.28-0.28c0.03-0.03 0.08-0.05 0.12-0.05h0.05c0.04 0 0.09 0.02 0.12 0.05s0.03 0.07 0 0.09-0.03 0.07 0 0.09c0.03 0.03 0.07 0.03 0.1 0l0.37-0.37c0.03-0.03 0.08-0.05 0.12-0.05h0.05c0.04 0 0.05 0.03 0.04 0.06l-0.1 0.19c-0.02 0.03-0.02 0.09 0.01 0.12l0.1 0.14c0.02 0.03 0.07 0.06 0.11 0.06h0.05c0.04 0 0.09 0.02 0.12 0.05l0.09 0.09c0.03 0.03 0.03 0.07 0 0.1" clip-path="url(#SVGID_2_)"/><polyline fill="#fff" points="7.19 11.61 7.19 11.6 7.19 11.6 7.19 11.61" clip-path="url(#SVGID_2_)"/><path fill="#fff" d="m21.6 14.51l0.11-0.1c0.04-0.04 0.06-0.11 0.04-0.17l-0.05-0.18c-0.02-0.05-0.06-0.06-0.1-0.03l-0.24 0.24c-0.04 0.04-0.04 0.1 0 0.14l0.1 0.09c0.04 0.04 0.1 0.04 0.14 0" clip-path="url(#SVGID_2_)"/><path fill="#fff" d="m17.53 18.01l0.14-0.26c0.02-0.03 0.05-0.09 0.06-0.13l0.26-0.54c0.02-0.04 0.04-0.09 0.04-0.13l0.02-0.12c0.01-0.04-0.01-0.09-0.03-0.12s-0.07-0.02-0.1 0l-0.28 0.28c-0.03 0.03-0.08 0.05-0.12 0.05h-0.05c-0.04 0-0.07 0.03-0.07 0.07v0.24c0 0.04-0.02 0.09-0.05 0.12l-0.09 0.09c-0.03 0.03-0.05 0.08-0.05 0.12v0.05c0 0.04 0.02 0.09 0.05 0.12l0.18 0.17c0.03 0.03 0.07 0.02 0.08-0.01" clip-path="url(#SVGID_2_)"/><path fill="#fff" d="m13.87 11.05l0.11-0.11c0.03-0.03 0.02-0.06-0.02-0.06h-0.21c-0.05 0-0.06 0.03-0.04 0.07l0.06 0.08c0.03 0.04 0.07 0.04 0.11 0.01" clip-path="url(#SVGID_2_)"/><path fill="#fff" d="m15.26 11.17l0.04-0.03c0.04-0.03 0.04-0.09 0.01-0.13l-0.08-0.08c-0.04-0.04-0.11-0.06-0.16-0.05l-0.11 0.02c-0.05 0.01-0.06 0.04-0.03 0.08l0.19 0.19c0.04 0.04 0.1 0.04 0.14 0.01" clip-path="url(#SVGID_2_)"/><path fill="#fff" d="m11.75 8.94l0.59-0.01c0.04 0 0.07-0.02 0.07-0.05 0-0.02 0.02-0.07 0.05-0.1l0.09-0.1c0.03-0.03 0.05-0.08 0.05-0.12v-0.2c0-0.04-0.03-0.07-0.07-0.07h-0.05c-0.04 0-0.07-0.03-0.07-0.07v-0.05c0-0.04-0.02-0.09-0.05-0.12l-0.28-0.28c-0.03-0.03-0.03-0.07 0-0.1l0.09-0.09c0.03-0.03 0.03-0.07 0-0.1l-0.18-0.18c-0.03-0.03-0.07-0.03-0.1 0l-0.18 0.18c-0.03 0.03-0.05 0.08-0.05 0.12v0.24c0 0.04 0.03 0.07 0.07 0.07h0.05c0.04 0 0.08 0.03 0.1 0.06l0.13 0.25c0.02 0.04 0.01 0.09-0.02 0.12l-0.03 0.03c-0.03 0.03-0.04 0.08-0.03 0.12l0 0.01c0.01 0.04 0.01 0.08 0 0.09s-0.04 0.03-0.07 0.03-0.06 0.04-0.06 0.08l0 0c0 0.04-0.02 0.1-0.04 0.13l-0.03 0.05c-0.02 0.03-0.01 0.06 0.03 0.06" clip-path="url(#SVGID_2_)"/><path fill="#fff" d="m11.32 8.56h0.24c0.04 0 0.09-0.02 0.12-0.05l0.09-0.09c0.03-0.03 0.03-0.07 0-0.1l-0.09-0.09c-0.03-0.03-0.02-0.06 0.01-0.08l0.02-0.01c0.03-0.02 0.04-0.05 0-0.08l-0.03-0.02c-0.03-0.02-0.09-0.04-0.13-0.04h-0.05c-0.04 0-0.08 0.03-0.1 0.07l-0.01 0.02c-0.02 0.04-0.06 0.07-0.09 0.09-0.03 0.01-0.06 0.05-0.06 0.09v0.24c0 0.04 0.03 0.07 0.07 0.07" clip-path="url(#SVGID_2_)"/><path fill="#fff" d="m7.37 13.38l-0.09-0.09c-0.03-0.03-0.08-0.05-0.12-0.05h-0.23c-0.04 0-0.09-0.02-0.12-0.05l-0.09-0.09c-0.03-0.03-0.08-0.05-0.12-0.05h-0.05c-0.04 0-0.09 0.02-0.12 0.05l-0.09 0.09c-0.03 0.03-0.02 0.05 0.02 0.05h0.23c0.04 0 0.09 0.02 0.12 0.05l0.09 0.09c0.03 0.03 0.08 0.05 0.12 0.05h0.41c0.04 0 0.05-0.02 0.02-0.05" clip-path="url(#SVGID_2_)"/><path fill="#fff" d="m7.88 13.46h-0.04c-0.03 0-0.07 0.02-0.1 0.04-0.02 0.02-0.06 0.02-0.08 0-0.02-0.02-0.04-0.01-0.04 0.02v0.04c0 0.03-0.03 0.06-0.06 0.06h-0.04c-0.03 0-0.04 0.02-0.02 0.04l0.07 0.07c0.02 0.02 0.06 0.02 0.08 0 0.02-0.02 0.06-0.02 0.08 0 0.02 0.02 0.06 0.04 0.1 0.03l0.03 0c0.03 0 0.08-0.02 0.1-0.04s0.06-0.04 0.08-0.07c0.02-0.02 0.02-0.06 0-0.08l-0.07-0.07c-0.02-0.02-0.07-0.04-0.1-0.04" clip-path="url(#SVGID_2_)"/><path fill="#fff" d="m7.12 13.61c-0.04 0-0.05 0.02-0.02 0.05l0.08 0.08c0.03 0.03 0.07 0.03 0.09 0 0.03-0.02 0.03-0.06 0-0.09-0.02-0.02-0.07-0.04-0.11-0.04h-0.04z" clip-path="url(#SVGID_2_)"/><path fill="#fff" d="m11.35 6.57c0.02 0.02 0.04 0.06 0.04 0.09l0 0.03c0 0.03 0.03 0.05 0.05 0.06h0.04c0.03 0 0.07 0.02 0.09 0.04 0.02 0.02 0.06 0.04 0.09 0.04h0.18c0.03 0 0.07-0.02 0.09-0.04l0.21-0.21c0.02-0.02 0.02-0.05 0-0.08l-0.13-0.13c-0.02-0.02-0.06-0.04-0.09-0.04l-0.18 0c-0.03 0-0.07 0.02-0.09 0.04l-0.07 0.07c-0.02 0.02-0.06 0.02-0.08 0.01s-0.05-0.05-0.07-0.07l-0.06-0.07c-0.02-0.02-0.05-0.02-0.07 0l-0.07 0.07c-0.02 0.02-0.04 0.06-0.04 0.09v0.04c0 0.03 0.03 0.05 0.05 0.05h0.04c0.03 0 0.07 0.02 0.09 0.04" clip-path="url(#SVGID_2_)"/><path fill="#fff" d="m6.57 7.8c-0.04-0.01-0.09 0.01-0.12 0.03l-0.08 0.07c-0.03 0.03-0.03 0.07 0 0.09l0.05 0.05c0.03 0.03 0.07 0.03 0.1 0l0.18-0.17c0.03-0.02 0.02-0.05-0.02-0.06l-0.11-0.02z" clip-path="url(#SVGID_2_)"/><path fill="#fff" d="m11.21 16.67c-0.08-0.04-0.18-0.11-0.23-0.15s-0.2-0.11-0.33-0.14c-0.13-0.03-0.29-0.07-0.34-0.07-0.05-0.01-0.19-0.07-0.31-0.13-0.12-0.07-0.32-0.21-0.44-0.32-0.12-0.11-0.3-0.2-0.39-0.2s-0.33-0.14-0.52-0.32c-0.19-0.18-0.47-0.32-0.61-0.32s-0.29-0.03-0.34-0.07c-0.05-0.04-0.2-0.08-0.34-0.07-0.05 0-0.11 0.01-0.17 0.03l-0.28-0.29c-0.03-0.03-0.07-0.03-0.11-0.01l-0.08 0.05c-0.03 0.02-0.08 0.02-0.12 0l-0.04-0.03c-0.03-0.02-0.06-0.07-0.06-0.1l0-0.13c0-0.04-0.02-0.09-0.05-0.11l-0.21-0.17c-0.03-0.02-0.08-0.05-0.12-0.06l-0.15-0.03c-0.04-0.01-0.04-0.04-0.02-0.06l0.09-0.09c0.03-0.03 0.05-0.08 0.05-0.12v-0.23c0-0.04-0.03-0.07-0.07-0.07h-0.05c-0.04 0-0.09 0.02-0.12 0.05l-0.09 0.09c-0.03 0.03-0.08 0.05-0.12 0.05h-0.24c-0.04 0-0.07 0-0.07 0 0 0-0.03 0-0.07 0h-0.04c-0.04 0-0.09-0.02-0.12-0.05l-0.08-0.09c-0.03-0.03-0.05-0.08-0.05-0.12l0-0.23c0-0.04 0-0.1 0-0.13l0-0.22c0-0.04 0.02-0.09 0.05-0.11l0.1-0.09 0.18-0.18c0.03-0.03 0.08-0.05 0.12-0.05h0.78c0.04 0 0.09 0.02 0.12 0.05l0.09 0.09c0.03 0.03 0.05 0.08 0.05 0.12v0.05c0 0.04 0.02 0.09 0.05 0.12l0.09 0.09c0.03 0.03 0.07 0.03 0.1 0l0.09-0.09c0.03-0.03 0.03-0.07 0-0.1l-0.09-0.09c-0.03-0.03-0.05-0.08-0.05-0.12v-0.23c0-0.04 0.02-0.09 0.05-0.12l0.45-0.45c0.03-0.03 0.05-0.08 0.05-0.12v-0.04c0-0.04-0.02-0.09-0.05-0.12l-0.09-0.09c-0.03-0.03-0.03-0.07 0-0.09 0.03-0.02 0.07-0.02 0.09 0l0.09 0.09c0.03 0.03 0.07 0.03 0.09 0 0.03-0.03 0.05-0.08 0.05-0.11v-0.05c0-0.04 0.02-0.09 0.05-0.12l0.49-0.54c0.03-0.03 0.08-0.06 0.11-0.06l0.11-0.03c0.04-0.01 0.09 0 0.13 0.02l0.14 0.08c0.03 0.02 0.06 0.06 0.06 0.1l0 0.04c0 0.04 0.03 0.07 0.07 0.07h0.06c0.04 0 0.09-0.02 0.12-0.05l0.14-0.14c0.03-0.03 0.02-0.06-0.02-0.07l-0.29-0.08c-0.04-0.01-0.09-0.04-0.11-0.07l-0.09-0.09c-0.03-0.03-0.04-0.08-0.03-0.11l0.01-0.02c0.01-0.04-0.01-0.07-0.05-0.08l-0.09-0.01c-0.04 0-0.09 0.01-0.12 0.04l-0.27 0.27c-0.03 0.03-0.07 0.03-0.09 0-0.02-0.02-0.02-0.07 0-0.09l0.36-0.36c0.03-0.03 0.08-0.05 0.12-0.05l0.47 0c0.04 0 0.05 0.03 0.04 0.06l-0.08 0.16c-0.02 0.03-0.01 0.08 0.01 0.1 0.03 0.03 0.08 0.05 0.11 0.05l0.41 0c0.04 0 0.09 0.02 0.11 0.05s0.07 0.03 0.09 0c0.03-0.02 0.05-0.08 0.05-0.11v-0.05c0-0.04-0.02-0.09-0.05-0.12l-0.18-0.18c-0.03-0.03-0.02-0.07 0-0.09l0.01-0.01c0.03-0.02 0.08-0.04 0.12-0.04h0.12c0.04 0 0.08-0.03 0.1-0.06l0.03-0.06c0.02-0.03 0.01-0.08-0.02-0.11l-0.09-0.09c-0.03-0.03-0.08-0.05-0.12-0.05l-0.23 0c-0.04 0-0.09 0.01-0.12 0.02-0.03 0.01-0.06-0.01-0.08-0.04-0.02-0.03-0.02-0.09-0.02-0.12h0c0.01-0.04 0-0.1-0.01-0.13l-0.01-0.02c-0.01-0.04-0.04-0.09-0.06-0.12l-0.29-0.44c-0.02-0.03-0.06-0.04-0.09-0.01l-0.27 0.27c-0.03 0.03-0.08 0.04-0.11 0.03l-0.14-0.05c-0.04-0.01-0.08-0.04-0.11-0.07-0.02-0.03-0.02-0.07 0-0.09l0.09-0.09c0.03-0.03 0.03-0.07 0-0.1l-0.27-0.27c-0.03-0.02-0.08-0.05-0.12-0.05h-0.23c-0.04 0-0.07 0.03-0.07 0.07v0.23c0 0.04 0 0.1 0 0.14l-0.03 0.38c0 0.04-0.02 0.1-0.04 0.13l-0.12 0.21c-0.02 0.03-0.06 0.08-0.08 0.1l-0.26 0.23c-0.03 0.03-0.08 0.04-0.11 0.03-0.03 0-0.07-0.04-0.09-0.07l-0.13-0.3c-0.01-0.03-0.05-0.08-0.09-0.09l-0.57-0.28c-0.03-0.02-0.05-0.06-0.03-0.09l0.12-0.26c0.02-0.03 0.04-0.09 0.06-0.12l0.19-0.31c0.02-0.03 0.07-0.07 0.1-0.08l0.04-0.01c0.04-0.01 0.06-0.05 0.06-0.09l0-0.01c0-0.04 0.01-0.09 0.03-0.11 0.02-0.02 0.07-0.04 0.1-0.04h0.05c0.04 0 0.09 0.02 0.12 0.04s0.07 0.02 0.1 0c0.03-0.02 0.02-0.06 0-0.09l-0.18-0.18c-0.03-0.03-0.03-0.07 0-0.09l0.09-0.09c0.03-0.03 0.07-0.07 0.09-0.1s0.06-0.07 0.08-0.11l0.09-0.18c0.02-0.03 0.05-0.08 0.08-0.11l0.08-0.09c0.03-0.03 0.08-0.05 0.11-0.05h0.05c0.04 0 0.1 0.01 0.13 0.03l0.25 0.12c0.03 0.02 0.09 0.05 0.11 0.07l0.11 0.09c0.03 0.02 0.06 0.06 0.07 0.09 0.01 0.03-0.01 0.07-0.04 0.09l-0.07 0.06c-0.03 0.02-0.05 0.07-0.04 0.11l0.04 0.36c0 0.04 0.04 0.07 0.08 0.07l0.6 0.04c0.04 0 0.07-0.03 0.07-0.06l0-0.05c0-0.04-0.02-0.08-0.05-0.1l-0.17-0.1c-0.03-0.02-0.05-0.06-0.03-0.09 0.02-0.03 0.05-0.04 0.09-0.02l0.15 0.1c0.03 0.02 0.08 0.01 0.1-0.02l0.04-0.05c0.02-0.03 0.02-0.07-0.01-0.1l-0.28-0.29c-0.02-0.03-0.07-0.07-0.09-0.1l-0.67-0.77c-0.01-0.01-0.23-0.22-0.38-0.13-0.01 0-0.01 0.01-0.02 0.01-1.62 1.67-2.62 3.95-2.62 6.46 0 0.45 0.03 0.89 0.1 1.32 0.08 0.24 0.28 0.29 0.39 0.3 0 0 0-0.01 0-0.01 0 0 0 0 0.01 0h0c0.04 0.01 0.09-0.01 0.11-0.03 0.03-0.02 0.08-0.04 0.11-0.04l0.05 0c0.04 0 0.1 0.01 0.13 0.02l0.16 0.05c0.04 0.01 0.09 0.04 0.11 0.07l0.07 0.08c0.03 0.03 0.08 0.05 0.11 0.06l0.2 0.03c0.04 0.01 0.09 0.04 0.11 0.06l0.11 0.12c0.03 0.03 0.05 0.08 0.04 0.12l0 0.28c0 0.04 0.03 0.07 0.07 0.07h0.05c0.04 0 0.09 0.02 0.12 0.05l0.09 0.09c0.03 0.03 0.07 0.03 0.1 0l0.09-0.09c0.03-0.03 0.07-0.03 0.1 0l0.11 0.12c-0.06 0.08-0.13 0.26-0.14 0.42-0.02 0.17-0.11 0.38-0.2 0.47-0.09 0.1-0.15 0.36-0.14 0.58 0.01 0.22 0.15 0.57 0.31 0.77 0.16 0.2 0.37 0.42 0.48 0.5 0.11 0.07 0.24 0.28 0.28 0.47 0.04 0.15 0.09 0.39 0.12 0.57 0.01 0.02 0.01 0.05 0.02 0.08 0 0.02 0.01 0.03 0.01 0.05 0 0.02 0.01 0.03 0.01 0.05 0 0 0 0-0.01-0.01 0.03 0.22 0.07 0.51 0.22 0.63 0.54 0.43 1.12 0.8 1.74 1.1 0.09-0.02 0.05-0.25 0.02-0.37 0 0 0 0-0.01 0 0-0.01 0-0.02 0-0.04 0-0.02-0.01-0.03-0.01-0.03h0c-0.04-0.15-0.08-0.3-0.1-0.35-0.02-0.05-0.03-0.14-0.03-0.21 0-0.07 0.03-0.17 0.05-0.23 0.03-0.06 0.07-0.13 0.09-0.15 0.02-0.02 0.06-0.06 0.08-0.09 0.02-0.02 0.12-0.12 0.21-0.22 0.09-0.1 0.16-0.25 0.16-0.35 0-0.09 0.03-0.21 0.08-0.26s0.16-0.09 0.25-0.09c0.09 0 0.28-0.12 0.41-0.27s0.24-0.34 0.24-0.43c0-0.09 0.07-0.25 0.16-0.34 0.09-0.1 0.15-0.26 0.13-0.36-0.02-0.1-0.1-0.21-0.18-0.25" clip-path="url(#SVGID_2_)"/><path fill="#fff" d="m9.47 4.4c0.07 0.02 0.17 0.03 0.23 0.03 0.06 0 0.29 0.01 0.32 0.02l0.17 0.09c0.02 0.01 0.07 0.02 0.09 0.02l0.18 0c0.03 0 0.05 0.02 0.05 0.05l0 0.03c0 0.03-0.02 0.07-0.04 0.09l-0.06 0.06c-0.02 0.02-0.05 0.05-0.06 0.07-0.01 0.02-0.03 0.06-0.03 0.08l0 0.04c0 0.03 0.01 0.07 0.03 0.09l0.53 0.53c0.02 0.02 0.06 0.05 0.08 0.06l0.18 0.08c0.03 0.01 0.06 0.01 0.08-0.01l0.06-0.05c0.02-0.02 0.04-0.06 0.04-0.08l0-0.18c0-0.03 0.02-0.07 0.04-0.09l0.06-0.06c0.02-0.02 0.05-0.05 0.07-0.07l0.2-0.19c0.02-0.02 0.05-0.05 0.07-0.07l0.34-0.33c0.02-0.02 0.06-0.03 0.09-0.03h0.06c0.03 0 0.06-0.02 0.08-0.04l0.1-0.13c0.02-0.02 0.05-0.05 0.07-0.07l0.16-0.11c0.02-0.02 0.05-0.05 0.07-0.07l0.06-0.08c0.02-0.02 0.03-0.06 0.03-0.09l-0.01-0.17v-0.1l0-0.04c0-0.03 0.02-0.06 0.05-0.07l0.31-0.14c0.01 0 0.01-0.01 0.02-0.01 0.19-0.01 0.38-0.02 0.57-0.02 1.53 0 2.98 0.39 4.24 1.07 0 0 0.16 0.07 0.23-0.06 0.08-0.14-0.04-0.23-0.04-0.23-1.32-0.72-2.82-1.12-4.42-1.12-1.62 0-3.15 0.42-4.47 1.15 0.04 0.05 0.16 0.15 0.22 0.17" clip-path="url(#SVGID_2_)"/><path fill="#fff" d="m21.69 15.88h-0.04c-0.03 0-0.07 0.02-0.09 0.04l-0.28 0.28c-0.02 0.02-0.05 0.02-0.07 0l-0.07-0.07c-0.02-0.02-0.05-0.02-0.07 0l-0.28 0.28c-0.02 0.02-0.04 0.04-0.04 0.04 0 0-0.02 0.02-0.04 0.04l-0.06 0.07c-0.02 0.02-0.06 0.04-0.09 0.04h-0.18c-0.03 0-0.07 0.02-0.09 0.04l-0.21 0.21c-0.02 0.02-0.04 0.06-0.04 0.09v0.18c0 0.03 0.02 0.07 0.04 0.09l0.07 0.07c0.02 0.02 0.04 0.06 0.04 0.09v0.46c0 0.03 0.02 0.07 0.04 0.09l0.07 0.07c0.02 0.02 0.05 0.02 0.07 0l0.07-0.07c0.02-0.02 0.06-0.04 0.09-0.04l0.23 0c-1.64 2.09-4.18 3.44-7.04 3.44-0.62 0-1.23-0.07-1.81-0.19 0 0-0.16-0.02-0.2 0.12-0.04 0.16 0.11 0.21 0.11 0.21 0.61 0.13 1.25 0.2 1.9 0.2 3.75 0 6.99-2.24 8.45-5.45l-0.38-0.28c-0.02-0.01-0.07-0.02-0.1-0.02" clip-path="url(#SVGID_2_)"/><path fill="#fff" d="m5.16 40.95c-0.22 0-1.5-0.03-2.25-0.03-0.75 0-2.01 0.03-2.23 0.03v-0.85c0.9 0 1.23-0.2 1.23-1.24v-6.04c0-1.05-0.33-1.24-1.23-1.24v-0.86c0.22 0 1.5 0.03 2.25 0.03 0.75 0 2.01-0.03 2.23-0.03v0.86c-0.9 0-1.23 0.19-1.23 1.24v6.04c0 1.05 0.33 1.24 1.23 1.24v0.85z" clip-path="url(#SVGID_2_)"/><path fill="#fff" d="m26.68 40.95c-0.22 0-1.5-0.03-2.25-0.03s-2.01 0.03-2.23 0.03v-0.85c0.9 0 1.23-0.2 1.23-1.24v-5.31l-3.16 7.41h-1.33l-3.18-7.41v5.25c0 1.05 0.45 1.3 1.35 1.3v0.85c-0.45 0-1.2-0.03-1.95-0.03-0.75 0-1.51 0.03-1.96 0.03v-0.85c0.9 0 1.43-0.26 1.43-1.3v-5.98c0-1.05-0.63-1.24-1.53-1.24v-0.86c0.23 0 1.19 0.03 1.94 0.03s1.29-0.03 1.74-0.03l3.34 7.8 3.33-7.8c0.35 0 0.8 0.03 1.54 0.03 0.75 0 1.26-0.03 1.71-0.03v0.86c-0.9 0-1.23 0.19-1.23 1.24v6.04c0 1.05 0.33 1.24 1.23 1.24v0.85z" clip-path="url(#SVGID_2_)"/><path fill="#fff" d="m11.44 31.56c-0.9 0-1.23 0.2-1.23 1.25v6.04c0 1.63-0.24 2.38-0.69 3.09-0.73 1.17-2.5 1.88-3.13 2.14l-0.19-0.4c1.17-0.85 1.49-1.46 1.73-2.13 0.21-0.58 0.26-1.32 0.26-2.7v-6.04c0-1.2-0.49-1.25-1.39-1.25v-0.85c0.23 0 1.58 0.03 2.32 0.03s2.1-0.03 2.32-0.03v0.86z" clip-path="url(#SVGID_2_)"/><path fill="#fff" d="m1.95 11.86l0.11-0.26 0.21 0.01-0.36 0.74c-0.09 0.2-0.29 0.27-0.55 0.25-0.34-0.02-0.55-0.18-0.53-0.53 0.02-0.35 0.25-0.48 0.6-0.45 0.26 0.02 0.44 0.11 0.51 0.3h0l0.02-0.06zm-0.58 0.54c0.21 0.01 0.39-0.03 0.4-0.27 0.02-0.23-0.16-0.3-0.36-0.32s-0.39 0.03-0.4 0.27c-0.02 0.23 0.16 0.3 0.36 0.32" clip-path="url(#SVGID_2_)"/><path fill="#fff" d="m1.6 11.36l-0.68-0.12 0.03-0.19 0.68 0.12c0.13 0.02 0.24 0 0.28-0.21s-0.06-0.26-0.19-0.29l-0.68-0.12 0.03-0.19 0.68 0.12c0.24 0.04 0.4 0.17 0.34 0.51-0.06 0.34-0.25 0.41-0.49 0.37" clip-path="url(#SVGID_2_)"/><path d="m1.6 9.73l-0.16-0.1 0.2-0.01 0.33-0.02-0.08 0.31-0.28-0.18zm-0.32-0.27l-0.06 0.22 0.96 0.68 0.06-0.2-0.22-0.15 0.11-0.42 0.26-0.02 0.06-0.2-1.17 0.1z" fill="#fff"/><polygon points="1.78 8.03 1.95 8.1 1.74 8.64 1.99 8.73 2.17 8.25 2.34 8.32 2.16 8.8 2.42 8.9 2.64 8.33 2.81 8.39 2.53 9.15 1.51 8.76" fill="#fff"/><defs><rect id="SVGID_3_" y="0" width="27.4" height="44.08"/></defs><clipPath id="SVGID_4_"><use overflow="visible" xlink:href="#SVGID_3_"/></clipPath><path fill="#fff" d="m3.02 7.93l-0.09 0.18-0.98-0.48 0.2-0.41c0.08-0.17 0.22-0.31 0.46-0.19 0.17 0.09 0.21 0.21 0.18 0.33l0.52-0.04-0.1 0.21-0.49 0.03-0.09 0.18 0.38 0.19zm-0.43-0.51c0.03-0.06 0.06-0.15-0.06-0.21-0.12-0.06-0.17 0.02-0.2 0.08l-0.12 0.24 0.27 0.13 0.12-0.24z" clip-path="url(#SVGID_4_)"/><rect transform="matrix(-.8662 -.4997 .4997 -.8662 2.289 14.088)" height="0.2" width="1.09" y="6.64" x="2.49" fill="#fff"/><polygon points="3.97 6.28 3.86 6.44 3.1 5.93 2.92 6.2 2.77 6.1 3.24 5.4 3.39 5.5 3.21 5.77" fill="#fff"/><polygon points="3.92 4.53 4.06 4.65 3.7 5.1 3.9 5.26 4.22 4.86 4.36 4.98 4.04 5.38 4.26 5.56 4.64 5.08 4.79 5.2 4.28 5.82 3.43 5.14" fill="#fff"/><rect transform="matrix(-.702 -.7121 .7121 -.702 5.6858 10.607)" height="0.2" width="1.09" y="4.01" x="4.52" fill="#fff"/><defs><rect id="SVGID_5_" y="0" width="27.4" height="44.08"/></defs><clipPath id="SVGID_6_"><use overflow="visible" xlink:href="#SVGID_5_"/></clipPath><path fill="#fff" d="m5.51 3.88l-0.45-0.53 0.15-0.13 0.45 0.53c0.09 0.1 0.19 0.15 0.34 0.02s0.13-0.24 0.04-0.34l-0.45-0.53 0.15-0.13 0.45 0.53c0.15 0.18 0.19 0.39-0.07 0.61-0.26 0.22-0.46 0.15-0.61-0.03" clip-path="url(#SVGID_6_)"/><path fill="#fff" d="m6.7 3.42l-0.62-0.9 0.32-0.22c0.28-0.19 0.52-0.15 0.73 0.16 0.21 0.31 0.17 0.55-0.11 0.74l-0.32 0.22zm0.22-0.37c0.19-0.13 0.17-0.29 0.05-0.47-0.13-0.18-0.27-0.25-0.46-0.12l-0.16 0.11 0.41 0.6 0.16-0.11z" clip-path="url(#SVGID_6_)"/><rect transform="matrix(-.5018 -.865 .865 -.5018 9.391 9.8554)" height="0.2" width="1.09" y="2.12" x="6.99" fill="#fff"/><defs><rect id="SVGID_7_" y="0" width="27.4" height="44.08"/></defs><clipPath id="SVGID_8_"><use overflow="visible" xlink:href="#SVGID_7_"/></clipPath><path fill="#fff" d="m8.53 2.13c0.13-0.06 0.17-0.14 0.13-0.27l0.19-0.07c0.07 0.2 0.02 0.37-0.24 0.5-0.3 0.15-0.52 0-0.67-0.3-0.15-0.31-0.13-0.56 0.18-0.71 0.25-0.12 0.43-0.06 0.54 0.12l-0.17 0.11c-0.07-0.11-0.16-0.13-0.29-0.06-0.2 0.1-0.16 0.28-0.08 0.46 0.09 0.18 0.21 0.33 0.41 0.23" clip-path="url(#SVGID_8_)"/><rect transform="matrix(-.367 -.9302 .9302 -.367 11.211 10.484)" height="0.2" width="1.09" y="1.33" x="8.63" fill="#fff"/><defs><rect id="SVGID_9_" y="0" width="27.4" height="44.08"/></defs><clipPath id="SVGID_10_"><use overflow="visible" xlink:href="#SVGID_9_"/></clipPath><path fill="#fff" d="m9.67 1.39l-0.2-0.66 0.19-0.06 0.2 0.66c0.04 0.13 0.11 0.21 0.31 0.15 0.2-0.06 0.21-0.17 0.17-0.3l-0.2-0.66 0.19-0.06 0.2 0.66c0.07 0.23 0.02 0.43-0.3 0.53-0.33 0.1-0.48-0.04-0.55-0.27" clip-path="url(#SVGID_10_)"/><polygon points="11.39 1.34 11.09 0.84 11 0.69 11.06 0.98 11.14 1.39 10.95 1.43 10.74 0.36 10.97 0.31 11.3 0.85 11.41 1.04 11.45 0.82 11.56 0.2 11.78 0.15 11.99 1.22 11.8 1.26 11.72 0.85 11.67 0.56 11.64 0.74 11.54 1.31" fill="#fff"/><defs><rect id="SVGID_11_" y="0" width="27.4" height="44.08"/></defs><clipPath id="SVGID_12_"><use overflow="visible" xlink:href="#SVGID_11_"/></clipPath><path fill="#fff" d="m12.68 0.75c-0.11 0.01-0.21-0.08-0.22-0.19-0.01-0.11 0.08-0.21 0.19-0.22 0.11-0.01 0.21 0.08 0.22 0.19 0.01 0.11-0.08 0.21-0.19 0.22" clip-path="url(#SVGID_12_)"/><path fill="#fff" d="m13.38 0.79l0.2-0.02c0.02 0.13 0.09 0.18 0.24 0.18 0.11 0 0.24-0.04 0.24-0.16 0-0.1-0.06-0.14-0.24-0.16-0.2-0.02-0.4-0.07-0.4-0.3 0-0.23 0.19-0.33 0.4-0.33 0.29 0 0.42 0.13 0.44 0.34l-0.2 0.02c-0.01-0.13-0.09-0.17-0.24-0.17-0.07 0-0.2 0.03-0.2 0.15 0 0.08 0.04 0.11 0.21 0.13 0.27 0.03 0.42 0.08 0.42 0.33 0 0.24-0.21 0.34-0.43 0.34-0.3 0-0.42-0.12-0.44-0.34" clip-path="url(#SVGID_12_)"/><path fill="#fff" d="m14.55 0.73l0.08-0.69 0.2 0.02-0.07 0.69c-0.01 0.13 0.02 0.24 0.22 0.26 0.21 0.02 0.26-0.08 0.28-0.21l0.07-0.69 0.2 0.02-0.07 0.69c-0.02 0.24-0.15 0.41-0.49 0.37-0.34-0.04-0.42-0.23-0.4-0.46" clip-path="url(#SVGID_12_)"/><path fill="#fff" d="m15.63 1.26l0.22-1.07 0.46 0.09c0.14 0.03 0.31 0.11 0.26 0.36-0.02 0.11-0.08 0.17-0.14 0.19 0.07 0.05 0.11 0.15 0.08 0.28-0.05 0.26-0.23 0.28-0.41 0.24l-0.47-0.09zm0.49-0.09c0.06 0.01 0.16 0.03 0.19-0.1 0.03-0.13-0.05-0.16-0.12-0.17l-0.27-0.05-0.06 0.28 0.27 0.05zm-0.12-0.76l-0.05 0.26 0.25 0.05c0.08 0.02 0.14 0 0.16-0.1 0.02-0.1-0.03-0.14-0.11-0.15l-0.25-0.05z" clip-path="url(#SVGID_12_)"/><polygon points="16.99 1.6 17.18 1.66 17.9 0.71 17.69 0.65 17.32 1.17 17.16 1.39 17.15 1.12 17.13 0.48 16.92 0.42" fill="#fff"/><polygon points="18.88 1.11 18.82 1.27 18.28 1.06 18.18 1.3 18.66 1.49 18.59 1.66 18.11 1.47 18 1.73 18.57 1.96 18.5 2.13 17.75 1.82 18.16 0.81" fill="#fff"/><polygon points="19.3 1.9 19.29 1.7 19.17 1.93 18.95 2.35 18.77 2.26 19.28 1.29 19.44 1.38 19.52 2.05 19.53 2.25 19.65 2.02 19.87 1.6 20.05 1.69 19.54 2.66 19.38 2.57" fill="#fff"/><rect transform="matrix(-.8451 -.5346 .5346 -.8451 35.993 15.299)" height="1.09" width="0.2" y="1.89" x="20.11" fill="#fff"/><polygon points="20.66 3.4 20.5 3.29 21.04 2.55 20.78 2.36 20.89 2.22 21.56 2.71 21.46 2.85 21.2 2.67" fill="#fff"/><polygon points="22.43 3.44 22.31 3.58 21.87 3.2 21.7 3.39 22.09 3.73 21.97 3.87 21.58 3.53 21.39 3.75 21.85 4.14 21.73 4.28 21.13 3.75 21.84 2.93" fill="#fff"/><defs><rect id="SVGID_13_" y="0" width="27.4" height="44.08"/></defs><clipPath id="SVGID_14_"><use overflow="visible" xlink:href="#SVGID_13_"/></clipPath><path fill="#fff" d="m22.62 4.39c0.26-0.23 0.52-0.26 0.75 0 0.23 0.26 0.16 0.52-0.1 0.74s-0.52 0.26-0.75 0.01c-0.23-0.26-0.16-0.51 0.1-0.74m0.13 0.15c-0.15 0.14-0.25 0.3-0.09 0.47 0.16 0.18 0.32 0.1 0.48-0.04 0.16-0.14 0.25-0.29 0.1-0.47-0.15-0.18-0.33-0.1-0.48 0.03" clip-path="url(#SVGID_14_)"/><path fill="#fff" d="m23.15 5.88l-0.11-0.16 0.88-0.64 0.25 0.34c0.11 0.15 0.17 0.34-0.06 0.5-0.22 0.16-0.39 0.05-0.5-0.1l-0.13-0.18-0.33 0.24zm0.88-0.34l-0.14-0.19-0.26 0.19 0.14 0.19c0.04 0.06 0.11 0.12 0.22 0.04 0.11-0.08 0.08-0.17 0.04-0.22" clip-path="url(#SVGID_14_)"/><path fill="#fff" d="m23.7 6.69l-0.1-0.17 0.93-0.56 0.22 0.36c0.1 0.16 0.14 0.36-0.1 0.5-0.23 0.14-0.39 0.01-0.48-0.14l-0.11-0.19-0.35 0.21zm0.9-0.27l-0.12-0.2-0.27 0.16 0.12 0.2c0.04 0.06 0.1 0.13 0.22 0.05 0.12-0.07 0.09-0.16 0.05-0.22" clip-path="url(#SVGID_14_)"/><path fill="#fff" d="m24.21 7.59l-0.09-0.18 0.98-0.48 0.2 0.41c0.08 0.17 0.11 0.36-0.13 0.48-0.17 0.09-0.29 0.04-0.37-0.06l-0.29 0.44-0.1-0.21 0.28-0.41-0.09-0.18-0.38 0.19zm0.67-0.03c0.03 0.06 0.08 0.14 0.2 0.08s0.09-0.15 0.07-0.21l-0.12-0.24-0.27 0.13 0.12 0.24z" clip-path="url(#SVGID_14_)"/><polygon points="25.9 8.79 25.73 8.85 25.53 8.31 25.29 8.4 25.47 8.88 25.3 8.94 25.12 8.46 24.85 8.56 25.06 9.13 24.89 9.2 24.61 8.44 25.63 8.06" fill="#fff"/><defs><rect id="SVGID_15_" y="0" width="27.4" height="44.08"/></defs><clipPath id="SVGID_16_"><use overflow="visible" xlink:href="#SVGID_15_"/></clipPath><path fill="#fff" d="m25.28 9.37l0.07 0.19c-0.12 0.05-0.14 0.14-0.1 0.28 0.03 0.11 0.1 0.22 0.22 0.18 0.09-0.02 0.12-0.09 0.09-0.27-0.04-0.2-0.04-0.4 0.19-0.46 0.22-0.06 0.37 0.09 0.42 0.3 0.08 0.28-0.01 0.44-0.21 0.51l-0.07-0.19c0.12-0.05 0.14-0.13 0.1-0.28-0.02-0.07-0.08-0.18-0.2-0.15-0.07 0.02-0.09 0.07-0.06 0.24 0.05 0.27 0.04 0.43-0.21 0.5-0.23 0.07-0.39-0.11-0.44-0.32-0.08-0.29 0-0.44 0.21-0.51" clip-path="url(#SVGID_16_)"/><path fill="#fff" d="m25.57 10.5l0.06 0.19c-0.12 0.04-0.16 0.12-0.13 0.27 0.02 0.11 0.08 0.22 0.2 0.2 0.09-0.02 0.13-0.08 0.11-0.26-0.02-0.2 0-0.4 0.23-0.44 0.23-0.04 0.36 0.13 0.39 0.33 0.05 0.28-0.05 0.43-0.25 0.49l-0.05-0.19c0.12-0.04 0.16-0.11 0.13-0.26-0.01-0.07-0.06-0.19-0.18-0.17-0.07 0.01-0.1 0.06-0.09 0.23 0.02 0.27 0 0.43-0.25 0.47-0.24 0.04-0.37-0.15-0.41-0.36-0.05-0.29 0.05-0.44 0.26-0.49" clip-path="url(#SVGID_16_)"/><path fill="#fff" d="m25.98 11.64c0.34-0.02 0.57 0.11 0.6 0.45 0.02 0.35-0.19 0.51-0.53 0.53-0.34 0.03-0.57-0.1-0.6-0.45-0.02-0.35 0.19-0.51 0.53-0.53m0.01 0.2c-0.21 0.02-0.38 0.09-0.36 0.32 0.02 0.23 0.2 0.28 0.4 0.26 0.21-0.01 0.38-0.08 0.36-0.32-0.01-0.23-0.19-0.28-0.4-0.26" clip-path="url(#SVGID_16_)"/><path fill="#fff" d="m27.34 15.69c-0.14 0.03-0.29 0.08-0.43 0.15l-0.01 0c-0.04 0.02-0.19 0.11-0.22 0.13 0 0-0.01 0.01-0.02 0.02-0.37 0.25-0.72 0.62-0.99 1 0.15-0.39 0.29-0.78 0.4-1.19h0c-0.02-0.06-0.07-0.11-0.13-0.12-0.06-0.01-0.13 0.01-0.17 0.06h0c-0.17 0.59-0.37 1.15-0.62 1.7-0.03-0.53-0.35-1.18-0.73-1.6-0.26 0.75 0.06 1.54 0.54 1.99-0.35 0.71-0.76 1.38-1.23 2.01 0.08-0.52-0.09-1.23-0.37-1.71-0.42 0.67-0.28 1.51 0.1 2.05-0.49 0.61-1.04 1.17-1.63 1.67 0.18-0.49 0.16-1.19 0-1.71-0.55 0.56-0.59 1.4-0.35 2-0.55 0.43-1.13 0.82-1.74 1.16 0.23-0.44 0.33-1.05 0.29-1.53-0.62 0.41-0.86 1.16-0.79 1.79-0.76 0.38-1.57 0.67-2.4 0.89 0.41-0.34 0.73-1.05 0.82-1.62-0.75 0.27-1.16 1.04-1.19 1.71-0.54 0.12-1.09 0.21-1.66 0.26l0.07-0.17 0.2-0.47c0.03-0.06 0.02-0.14-0.03-0.2l-0.27-0.34c-0.04-0.05-0.09-0.08-0.15-0.08-0.01 0-0.02 0-0.03 0-0.07 0.01-0.13 0.05-0.15 0.12l-0.3 0.74c0-0.01-0.01-0.01-0.01-0.02-0.07-0.08-0.17-0.12-0.32-0.12-0.19 0-0.29 0.06-0.35 0.13 0 0 0 0 0-0.01-0.07-0.08-0.17-0.12-0.31-0.12-0.08 0-0.15 0.01-0.2 0.03l-0.26-0.63c-0.03-0.06-0.08-0.11-0.15-0.12-0.01 0-0.02 0-0.03 0-0.06 0-0.12 0.03-0.15 0.08l-0.27 0.34c-0.04 0.06-0.05 0.13-0.03 0.2l0.19 0.47 0.06 0.14c-0.55-0.06-1.1-0.16-1.63-0.29-0.01-0.09-0.06-0.17-0.13-0.24-0.29-0.26-0.55-0.54-0.79-0.84-0.09-0.11-0.23-0.17-0.38-0.16-0.06 0.01-0.12 0.03-0.17 0.06-0.12 0.08-0.18 0.2-0.17 0.33 0 0 0.01 0.06 0.01 0.06 0 0-0.09-0.16-0.12-0.22l0-0.01c-0.09-0.19-0.18-0.39-0.26-0.6-0.07-0.18-0.24-0.29-0.43-0.26-0.02 0-0.04 0.01-0.06 0.01-0.1 0.03-0.19 0.1-0.24 0.19-0.04 0.09-0.05 0.19-0.02 0.29 0.01 0.04 0.03 0.07 0.04 0.11l0 0.01c0 0.01 0 0.01 0 0.01-0.04 0-0.17-0.08-0.28-0.15l-0.09-0.06h0c-0.02-0.01-0.05-0.03-0.07-0.05-0.09-0.06-0.2-0.09-0.31-0.07-0.05 0.01-0.09 0.02-0.13 0.04-0.11-0.07-0.21-0.14-0.32-0.21 0.01-0.08 0-0.17-0.05-0.25-0.18-0.34-0.34-0.69-0.47-1.06-0.05-0.14-0.16-0.24-0.31-0.27-0.06-0.01-0.12-0.01-0.18 0-0.13 0.03-0.24 0.13-0.27 0.26 0 0-0.01 0.06-0.02 0.06 0 0-0.03-0.18-0.04-0.25l0-0.01c-0.02-0.22-0.04-0.43-0.04-0.65-0.01-0.19-0.14-0.35-0.32-0.39-0.02 0-0.04-0.01-0.06-0.01-0.11-0.01-0.21 0.03-0.29 0.1-0.07 0.07-0.11 0.16-0.12 0.27 0 0.04 0 0.08 0 0.12v0.01c0 0.01-0.01 0.01-0.01 0.01-0.03-0.01-0.13-0.14-0.21-0.23l-0.07-0.08h0c-0.02-0.02-0.03-0.04-0.05-0.07-0.07-0.09-0.17-0.15-0.27-0.17-0.02 0-0.04-0.01-0.07-0.01-0.1-0.13-0.2-0.26-0.29-0.39 0.03-0.07 0.05-0.15 0.04-0.23-0.04-0.38-0.06-0.77-0.04-1.16 0.01-0.15-0.06-0.28-0.18-0.36-0.05-0.04-0.11-0.06-0.17-0.07-0.14-0.02-0.27 0.03-0.35 0.14 0 0-0.03 0.05-0.04 0.05 0 0 0.04-0.18 0.06-0.25l0-0.01c0.06-0.21 0.12-0.41 0.2-0.62 0.07-0.18 0-0.37-0.15-0.48-0.02-0.01-0.03-0.02-0.05-0.03-0.1-0.05-0.21-0.05-0.3-0.01-0.09 0.04-0.17 0.11-0.21 0.21-0.01 0.04-0.03 0.07-0.04 0.11l0 0.01c0 0-0.01 0.01-0.01 0.01-0.03-0.02-0.07-0.18-0.11-0.3l-0.03-0.1h0c-0.01-0.03-0.01-0.05-0.02-0.08-0.03-0.11-0.1-0.2-0.18-0.26-0.06-0.04-0.12-0.06-0.19-0.06-0.05-0.15-0.1-0.31-0.14-0.46h0c-0.04-0.05-0.1-0.07-0.17-0.06-0.07 0.01-0.11 0.06-0.13 0.12h0c0.05 0.17 0.1 0.34 0.16 0.51-0.01 0.02-0.03 0.04-0.04 0.06-0.06 0.11-0.08 0.24-0.04 0.37 0.04 0.15 0.09 0.3 0.14 0.44 0.02 0.07 0.02 0.09 0.02 0.1 0 0 0 0-0.01 0-0.04-0.02-0.07-0.05-0.11-0.07-0.1-0.07-0.21-0.08-0.32-0.05-0.1 0.03-0.17 0.11-0.21 0.22-0.08 0.21 0.02 0.49 0.21 0.62l0.02 0.01c0.17 0.1 0.34 0.2 0.51 0.28 0 0 0.39 0.2 0.39 0.21 0 0-0.08 0-0.08 0-0.13 0.01-0.23 0.1-0.28 0.23-0.07 0.2 0.03 0.46 0.22 0.59 0.01 0.01 0.03 0.02 0.04 0.02 0.38 0.21 0.78 0.39 1.18 0.54 0.07 0.03 0.14 0.03 0.21 0.02 0.08 0.11 0.16 0.22 0.25 0.32-0.04 0.05-0.07 0.11-0.08 0.17-0.02 0.12 0.02 0.25 0.1 0.35 0.09 0.12 0.19 0.24 0.29 0.36 0.04 0.05 0.05 0.08 0.06 0.09 0 0 0 0-0.01 0-0.04-0.01-0.08-0.02-0.13-0.02-0.12-0.02-0.23 0-0.31 0.07-0.08 0.07-0.12 0.17-0.11 0.28 0.01 0.23 0.2 0.45 0.42 0.5l0.03 0.01c0.19 0.03 0.39 0.06 0.58 0.07 0 0 0.44 0.04 0.44 0.05 0 0-0.08 0.03-0.08 0.03-0.11 0.06-0.18 0.18-0.17 0.31 0.01 0.21 0.19 0.42 0.42 0.47 0.02 0 0.03 0.01 0.05 0.01 0.43 0.05 0.87 0.07 1.3 0.06 0.07 0 0.13-0.02 0.18-0.05 0.1 0.07 0.21 0.13 0.31 0.2-0.01 0.04-0.01 0.09 0 0.13 0.02 0.12 0.1 0.23 0.21 0.3 0.13 0.08 0.26 0.17 0.39 0.24 0.06 0.04 0.07 0.06 0.08 0.07 0 0 0 0-0.01 0.01-0.04 0.01-0.08 0.01-0.13 0.02-0.12 0.02-0.22 0.08-0.27 0.17-0.05 0.09-0.06 0.2-0.02 0.31 0.08 0.21 0.34 0.36 0.56 0.33l0.03 0c0.19-0.04 0.38-0.07 0.57-0.12 0 0 0.43-0.1 0.44-0.1 0 0-0.06 0.06-0.06 0.06-0.09 0.1-0.11 0.23-0.06 0.35 0.08 0.2 0.32 0.33 0.55 0.3 0.02 0 0.03-0.01 0.05-0.01 0.43-0.09 0.85-0.22 1.24-0.37 0.06-0.02 0.1-0.05 0.14-0.09 0.62 0.15 1.25 0.26 1.9 0.33l-0.13 0.31-0.19 0.47c-0.03 0.07-0.02 0.14 0.03 0.2l0.27 0.34c0.04 0.05 0.1 0.07 0.15 0.07 0.01 0 0.02 0 0.03 0 0.07-0.01 0.13-0.05 0.15-0.12l0.29-0.7c0.07 0.07 0.17 0.11 0.31 0.11 0.21 0 0.32-0.08 0.37-0.15 0.01 0.01 0.01 0.02 0.02 0.03 0.07 0.08 0.17 0.12 0.32 0.12 0.11 0 0.2-0.02 0.26-0.06l0.27 0.65c0.03 0.07 0.09 0.11 0.16 0.12 0.01 0 0.02 0 0.03 0 0.06 0 0.12-0.03 0.15-0.07l0.27-0.34c0.04-0.06 0.06-0.13 0.03-0.2l-0.19-0.47-0.13-0.31c0.56-0.05 1.1-0.14 1.64-0.26 0.02 0.02 0.03 0.05 0.05 0.07 0.74 0.61 1.83 0.8 2.86 0.19l0 0c0.05-0.03 0.11-0.06 0.16-0.1-0.11-0.09-0.25-0.17-0.4-0.24l0 0c-0.04-0.02-0.21-0.08-0.24-0.09 0 0-0.02 0-0.03-0.01-0.38-0.11-0.83-0.15-1.26-0.13 0.56-0.18 1.1-0.4 1.62-0.66 0.04 0.06 0.08 0.12 0.15 0.17 0.86 0.42 1.96 0.36 2.83-0.47l0 0c0.05-0.04 0.09-0.09 0.14-0.13-0.13-0.06-0.28-0.11-0.44-0.14l0 0c-0.05-0.01-0.22-0.03-0.25-0.03 0 0-0.02 0-0.03 0-0.45-0.02-0.96 0.05-1.41 0.2l-0.25 0.03c0.57-0.32 1.11-0.68 1.62-1.09 0.04 0.03 0.07 0.05 0.12 0.07 0.93 0.23 1.99-0.07 2.66-1.07l0 0c0.04-0.05 0.07-0.1 0.1-0.16-0.14-0.04-0.3-0.05-0.46-0.04l-0.01 0c-0.05 0-0.22 0.02-0.25 0.03 0 0-0.02 0.01-0.03 0.01-0.44 0.07-0.92 0.26-1.33 0.5l-0.03 0.01c0.46-0.42 0.88-0.87 1.27-1.36 0.04 0.02 0.07 0.03 0.11 0.04 0.96 0.02 1.93-0.5 2.37-1.62l0 0c0.02-0.06 0.05-0.12 0.07-0.18-0.14 0-0.3 0.02-0.46 0.06l-0.01 0c-0.05 0.01-0.21 0.07-0.24 0.08 0 0-0.02 0.01-0.03 0.01-0.41 0.16-0.83 0.44-1.18 0.76 0.33-0.49 0.64-1.01 0.9-1.55 0.04 0.01 0.07 0.01 0.11 0.01 0.94-0.19 1.78-0.9 1.96-2.09h0c0.01-0.06 0.02-0.12 0.03-0.19m-14.92 8.85l-0.19-0.47 0.27-0.34 0.28 0.67c-0.02 0.03-0.03 0.05-0.04 0.07l-0.17 0.41-0.14-0.33zm0.06 0.51l0 0v-0.01c0 0 0 0 0 0m0.44 0.42l-0.33 0.81-0.27-0.34 0.2-0.47 0.38-0.91 0.01-0.02c0 0 0-0.01 0-0.01 0 0 0.01-0.01 0.01-0.02 0 0 0 0 0-0.01 0.03-0.03 0.08-0.06 0.21-0.06 0.2 0 0.18 0.1 0.18 0.1l-0.39 0.93zm0.67 0s-0.02 0.1-0.23 0.1c-0.2 0-0.18-0.1-0.18-0.1l0.39-0.93s0.02-0.1 0.23-0.1c0.2 0 0.18 0.1 0.18 0.1l-0.39 0.93zm0.71-0.01c0 0 0 0 0 0 0 0 0 0.01 0 0.01v0c-0.01 0.02-0.05 0.09-0.22 0.09-0.2 0-0.18-0.1-0.18-0.1l0.39-0.93 0.33-0.81 0.27 0.34-0.19 0.47-0.19 0.45-0.2 0.47zm0.74 0.48l-0.27 0.34-0.3-0.73c0 0 0 0 0 0l0.2-0.48 0.17 0.4 0.19 0.47z" clip-path="url(#SVGID_16_)"/><path fill="#fff" d="m2.8 13.35c-0.53 0.04-0.83-0.15-1.02-0.15-0.19 0-0.29 0.07-0.36 0.15-0.07-0.08-0.17-0.15-0.36-0.15-0.19 0-0.49 0.19-1.02 0.15-0.01 0.14-0.03 1.64-0.03 1.64l1.17-0.02c0.04 0.09 0.07 0.11 0.24 0.11h0.01c0.17 0 0.19-0.02 0.24-0.11l1.17 0.02s-0.02-1.5-0.03-1.64m-1.54 1.37c-0.09-0.06-0.19-0.12-0.33-0.11s-0.38 0.13-0.71 0.13c0-0.24 0.02-0.93 0.03-1.16 0.22 0.04 0.57-0.12 0.72-0.12 0.15 0 0.25 0.08 0.29 0.18v1.08zm0.64-0.11c-0.14-0.01-0.23 0.05-0.33 0.11v-1.07c0.04-0.1 0.14-0.18 0.29-0.18 0.14 0 0.5 0.15 0.72 0.12 0.01 0.23 0.03 0.92 0.03 1.16-0.33 0-0.57-0.13-0.71-0.13" clip-path="url(#SVGID_16_)"/><path fill="#fff" d="m27.37 13.35c-0.53 0.04-0.83-0.15-1.02-0.15-0.19 0-0.29 0.07-0.36 0.15-0.07-0.08-0.17-0.15-0.36-0.15-0.19 0-0.49 0.19-1.02 0.15-0.01 0.14-0.03 1.64-0.03 1.64l1.17-0.02c0.04 0.09 0.07 0.11 0.24 0.11h0.01c0.17 0 0.19-0.02 0.24-0.11l1.17 0.02s-0.02-1.5-0.03-1.64m-1.54 1.37c-0.1-0.06-0.19-0.12-0.33-0.11-0.14 0.01-0.38 0.13-0.71 0.13 0-0.24 0.02-0.93 0.03-1.16 0.22 0.04 0.57-0.12 0.72-0.12 0.15 0 0.25 0.08 0.29 0.18v1.08zm0.64-0.11c-0.14-0.01-0.23 0.05-0.33 0.11v-1.07c0.04-0.1 0.14-0.18 0.29-0.18 0.15 0 0.5 0.15 0.72 0.12 0.01 0.23 0.03 0.92 0.03 1.16-0.33 0-0.57-0.13-0.71-0.13" clip-path="url(#SVGID_16_)"/></svg>